<svg width="20" height="11" viewBox="0 0 20 11" fill="none" xmlns="http://www.w3.org/2000/svg">
<g clip-path="url(#clip0_1_31)">
<path d="M18.3972 4.47554C13.1707 5.24477 7.94425 4.89512 2.78746 3.84617C3.27526 2.93708 3.13589 1.39861 2.78746 0.419593C5.85366 0.629383 6.1324 0.419593 6.89895 1.6084C7.31707 2.16784 7.73519 2.72729 8.08362 3.28673C7.87456 2.72729 7.73519 2.16784 7.52613 1.53847L7.59582 1.6084C7.59582 1.6084 8.29268 1.81819 7.59582 0.909104C11.7073 1.46854 16.5854 2.02798 19.5819 1.53847C19.6516 3.63638 19.7213 6.29372 19.1638 8.32169C19.1638 7.83218 19.4425 4.19582 18.3972 4.47554ZM18.1882 10.1399C17.77 9.37064 17.9791 5.17484 18.5366 4.89512C18.885 5.10491 18.885 9.44057 18.1882 10.1399ZM17.7003 10C13.0314 8.74127 6.27178 8.8112 1.46341 9.37064C-0.0696875 8.1119 0.0696853 5.10491 1.67247 4.05596C7.10801 5.24477 12.4739 5.73428 17.9791 4.96505C17.4913 6.08393 17.4216 8.8112 17.7003 10ZM20 1.32868L19.7213 1.11889C16.0279 1.67833 11.9861 1.04896 7.24739 0.489523C6.82927 0.419593 7.45644 1.04896 7.52613 1.25875C7.52613 1.39861 6.89895 0.769243 7.31707 1.74826C7.03833 1.25875 6.55052 0.419593 6.20209 0.349663C5.01742 0.209803 3.76307 0.0699428 2.50871 1.27723e-05C1.81185 -0.0699173 3.34495 2.16785 2.36934 3.77624L1.5331 3.70631C-1.18467 5.24477 0.348431 9.86015 1.39373 9.79022C6.96864 9.16085 12.6829 9.16085 18.1185 10.5595C20.0697 11.049 20 2.37764 20 1.32868Z" fill="black"/>
</g>
<defs>
<clipPath id="clip0_1_31">
<rect width="20" height="10.7692" fill="white"/>
</clipPath>
</defs>
</svg>
