<svg id="Graphic_Elements" data-name="Graphic Elements" xmlns="http://www.w3.org/2000/svg" viewBox="0 0 1200 1200"><path d="M512,117c3,37.76,1.25,78.88,1,114.55C510.33,194.62,512.71,158.24,512,117Z" style="fill:#83C5BE;fill-rule:evenodd"/><path d="M602.85,150.58c-3.87,4.85-12.57-.44-17.77,2C589.22,148.16,596,150.72,602.85,150.58Z" style="fill:#FCFAF9;fill-rule:evenodd"/><path d="M586.08,159.47c4.35,11,2.44,22.69,1,35.55-5.31-9,.55-23.73-1-35.55Z" style="fill:#FCFAF9;fill-rule:evenodd"/><path d="M592,162.44c3.93,7.3,2.07,22.12,1,32.58-2.88-7.77-.15-20.24-1-32.58Z" style="fill:#FCFAF9;fill-rule:evenodd"/><path d="M597.91,164.41c3.82,6.78,3.58,20.16,2,30.61-4.94-6.54-.09-23.7-2-30.61Z" style="fill:#FCFAF9;fill-rule:evenodd"/><path d="M604.84,168.36c1.94,7.93,3.28,18.59,1,27.65-3.07-10.32-1.07-16.51-1-27.65Z" style="fill:#FCFAF9;fill-rule:evenodd"/><path d="M576.2,173.3c3.14,0,1.5,3.84,1,6.91C575,179.78,576.79,175.34,576.2,173.3Z" style="fill:#FCFAF9;fill-rule:evenodd"/><path d="M580.15,179.22c2.88,1.13,1.51,3.82,1,7.9C580,195.93,580.52,193.77,580.15,179.22Z" style="fill:#FCFAF9;fill-rule:evenodd"/><path d="M576.2,182.19c.24.62,1.43,10.6-2,10.86C575.26,189.8,574.7,185,576.2,182.19Z" style="fill:#FCFAF9;fill-rule:evenodd"/><path d="M623.59,203.91c-19.69.46-32.44-1.61-53.32-1-.07-3.36,2.9-3.68,4.93-4.93C591.19,200.12,615.06,194.34,623.59,203.91Z" style="fill:#83C5BE;fill-rule:evenodd"/><path d="M642.37,211.81c-28.4,2.94-55.64-.54-86.9,0,6.66-8.37,26.68-6.2,44.44-5.93s29.5-1,42.47,5.93Z" style="fill:#83C5BE;fill-rule:evenodd"/><path d="M648.29,219.71c-3.12,9.77-18.32,4.07-25.68,3.95-22.63-.36-50.39,1.16-75.05-1,.31-3-1.09-7.68,2-7.9,22.17,1,56.71,1.41,78,2,7.19.19,16-2.61,20.75,3Z" style="fill:#83C5BE;fill-rule:evenodd"/><path d="M769.76,222.67c.88.44,1.77.87,2,2-1.81,18,2.38,31.3-2,48.39V222.67Z" style="fill:#83C5BE;fill-rule:evenodd"/><path d="M580.15,252.3c2.66-2.28,9.52-.35,13.83-1-2.67,2.28-9.55.35-13.84,1Z" style="fill:#83C5BE;fill-rule:evenodd"/><path d="M706.55,251.31c1.15-.16,1.76.22,2,1-.4,24.11.69,52.05,0,68.14-2.36-23.19,0-50.51-2-69.12Z" style="fill-rule:evenodd"/><path d="M700.63,253.29c-8.57,2.29-21.39.33-31.6,1,11.55-4.06,21.07-.67,31.59-1Z" style="fill-rule:evenodd"/><path d="M587.06,257.24c7.24.65,14.42,1.38,22.71,1-4.28,20.29-.52,56.14-2,79,1.48,1.49,1.77,4.16,4,4.94,2.06-2.44-4.23-4.94-2-10.86,3.44.83,2.42,6.13,5.92,6.91h29.63c-6.05,5.14-22.92-.53-30.62,3,6.79,3.09,21.3-1.55,26.66,3,0,7.61-.29,15.45,1,21.73h-82c.15-8.38.09-16.55-1-23.7h20.74c-9.65-2.6-17.42-.26-24.69-2,6.14-4.39,20.26-.81,29.63-2,3.8-31,2.35-54.17,2-81Z" style="fill:#83C5BE;fill-rule:evenodd"/><path d="M557.44,274c-4.37,2.23-11.69-.68-18.77,0-6.21.59-12,4.76-16.78,2,.41-2.06-.68-2.61-1-3.95,5.25-11.05,34.57-14.7,36.54,2Zm-32.59-2c4.75-1.83,11-2.16,13.82-5.92C532.23,266.26,526.55,267.17,524.85,272Z" style="fill-rule:evenodd"/><path d="M683.84,274c-1.84,8.64-12.7.65-20.74,1-7.1.3-14.71,6.27-19.75,1,2.95-15.83,34.5-12.63,40.51-2Zm-36.53,1c6.52-3.63,15-5,22.71-4.94-4.65-6.76-24.44-1-22.71,4.94Z" style="fill-rule:evenodd"/><path d="M538.67,266.12c-2.81,3.77-9.07,4.1-13.82,5.93,1.7-4.87,7.38-5.78,13.82-5.92Z" style="fill:#83C5BE;fill-rule:evenodd"/><path d="M670,270.07c-7.76-.1-16.19,1.31-22.71,4.94-1.73-5.92,18.05-11.69,22.7-4.93Z" style="fill:#83C5BE;fill-rule:evenodd"/><path d="M487.32,269.09c.24,10.34,1.07,21.94,0,30.62-9.93-1.6-18.12-.25-27.65-1-.88-8.44-.3-18.78-2-28.64,8-2.24,20-.41,29.62-1Z" style="fill:#83C5BE;fill-rule:evenodd"/><path d="M454.73,276c3.56,1.52.65,5.84,2,10.87-1.87-2.43-2.12-6.45-2-10.88Z" style="fill:#83C5BE;fill-rule:evenodd"/><path d="M660.15,280.93c7.82-1.72,19.49,2.88,17.77,16.78-.78,6.36-7.41,12-10.86,12.84-18.21,4.22-29.94-24.56-6.9-29.63ZM673,303.66c6.66-8.84,2.69-23.37-15.8-20.74C638,292.09,660,320.87,673,303.66Z" style="fill-rule:evenodd"/><path d="M786.53,280.93c-1.43,3.5-.44,9.43-3,11.85H754.93c7.62-4.35,17.26-.56,27.65-2-7.9-2.3-20.07-.33-29.62-1-2.08-2.19,1-4.76,0-8.88,13.89.5,22.93-1.42,33.6,0Z" style="fill:#83C5BE;fill-rule:evenodd"/><path d="M414.25,283.9h37.52v6.91a144.55,144.55,0,0,1-37.52,0v-6.92Z" style="fill:#83C5BE;fill-rule:evenodd"/><path d="M787.54,284.88c3.76.81,3.76,7.09,0,7.9v-7.9Z" style="fill:#83C5BE;fill-rule:evenodd"/><path d="M658.16,303.66c9.42-1,12.23-8,11.85-13.83,10.74,4.94-4.35,24.55-11.86,13.82Z" style="fill-rule:evenodd"/><path d="M443.87,292.78c-2.8,4.44-13.7.79-19.75,2,4.25-3.23,14.5.28,19.75-2Z" style="fill:#83C5BE;fill-rule:evenodd"/><path d="M742.1,294.77c-2.6,5.77-18.94,2.61-24.69,2,4.45-3.93,20.11-1.44,24.69-2Z" style="fill:#83C5BE;fill-rule:evenodd"/><path d="M718.4,299.71h22.72c-6.36,3.21-18.1,3.86-22.71,0Z" style="fill:#83C5BE;fill-rule:evenodd"/><path d="M487.32,300.69c-2.5,5.61-25.75,3.32-26.66,1,7-2.21,18-.4,26.66-1Z" style="fill:#83C5BE;fill-rule:evenodd"/><path d="M638.42,368.82c-23.87,2.55-39.34-.79-64.19,0C589.4,367.18,620,367.18,638.42,368.82Z" style="fill:#83C5BE;fill-rule:evenodd"/><path d="M790.48,394.49c-93.83,5.46-200.88,1.94-305.13,3,79.39-2.76,150.6-3,218.24-3,27.91,0,64.46-.1,86.89,0Z" style="fill:#83C5BE;fill-rule:evenodd"/><path d="M627.55,401.42c2.78,2.14,2.62,13.93,1,19.75-1.92-4.54-.87-16.62-1-19.74Z" style="fill-rule:evenodd"/><path d="M621.63,402.4c2.52,4.28,1.35,11.4,1,15.8-2.3-3.32-.35-10.85-1-15.81Z" style="fill-rule:evenodd"/><path d="M639.4,402.4c5.18,12.59-.56,36.11,3,50.36-4.92-17.86-1.16-31.18-3-50.37Z" style="fill-rule:evenodd"/><path d="M651.24,402.4c2.29,27.33.8,65.25,2,82-4.08-23.93-1.35-61.77-2-82Z" style="fill-rule:evenodd"/><path d="M438.93,404.39c3.84.24,1.91,10,1,11.85-2.26-2-.36-8.21-1-11.86Z" style="fill-rule:evenodd"/><path d="M656.19,411.29c1.15-.16,1.76.21,2,1-.42,46,.8,87.51,0,120.48-3.13-37.33-1-66.33-2-118.5V411.3Z" style="fill-rule:evenodd"/><path d="M445.85,412.27c2.22.73.38,5.54,1,7.9-3.33-1.77-.83-4.85-1-7.91Z" style="fill-rule:evenodd"/><path d="M485.35,412.27c1.85,17.13,2.44,49-1,71.1,1.29-26.33.55-45.29,1-71.1Z" style="fill-rule:evenodd"/><path d="M463.62,413.27c1.13,2.82,2.75,14.58-1,15.8.58-7.2-.66-10.74,1-15.81Z" style="fill-rule:evenodd"/><path d="M474.48,413.27c3.77,6.19,1.13,20.13,2,31.6-4.53-6.66-.71-21.68-2-31.59Z" style="fill-rule:evenodd"/><path d="M456.71,420.17c2.48,6.81,1.83,12,1,18.77-2.29-4.28-.34-12.82-1-18.76Z" style="fill-rule:evenodd"/><path d="M671,428.08c-1.42,6.63.84,19.79,0,31.6-3-7.56-3.25-23.41,0-31.6Z" style="fill-rule:evenodd"/><path d="M490.28,432c3.47,13.89,2.21,37.82,1,57.28C488.84,475.88,491,450.31,490.28,432Z" style="fill-rule:evenodd"/><path d="M496.21,458.69c1.47,6.17,2.63,24.49-1,31.6,1.83-10,.49-19.1,1-31.59Z" style="fill-rule:evenodd"/><path d="M669,461.66c3.26,2.85,3.26,18.88,0,21.73.77-9.7.27-12.41,0-21.73Z" style="fill-rule:evenodd"/><path d="M500.16,472.51c4.39,1.87.82,11.69,2,16.79-4.38-1.88-.82-11.68-2-16.79Z" style="fill-rule:evenodd"/><path d="M669,485.35c4.39,1.87.83,11.69,2,16.79-4.39-1.88-.83-11.68-2-16.79Z" style="fill-rule:evenodd"/><path d="M435,486.34c2.2,34.12,1.06,73.46-1,106.65-.77-33.59.13-78.46,1-106.65Z" style="fill-rule:evenodd"/><path d="M800.38,488.32c1.14-.16,1.75.22,2,1,.62,24.78,3,56.26-2,79,1.39-21.4,1.79-55.55,0-80Z" style="fill-rule:evenodd"/><path d="M440.91,493.26c1.65,1.43,2.89,5.88,1,7.9-2.23-.74-.39-5.55-1-7.91Z" style="fill:#83C5BE;fill-rule:evenodd"/><path d="M454.73,501.16c4.33,41.79,1.47,91.52-4.93,125.42,4.17-39.59,6.59-90.84,4.93-125.43Z" style="fill-rule:evenodd"/><path d="M728.27,503.13c3.32-1,1.54,3.07,2,4.93-2-.72-4-3-2-4.93Z" style="fill:#83C5BE;fill-rule:evenodd"/><path d="M447.82,509c1.75-2.63.72,5.79,1,7.9-1.75,2.65-.72-5.78-1-7.9Z" style="fill:#83C5BE;fill-rule:evenodd"/><path d="M440.91,509c1.15-.15,1.76.22,2,1,.17,36-.26,57.38-3,89.87-1.52-26.58,2-56.54,1-90.84Z" style="fill:#83C5BE;fill-rule:evenodd"/><path d="M812.21,512c3.81,25.92,1.64,46.94-1,75.06-1.46-20.88,2.25-48.44,1-75.05Z" style="fill:#83C5BE;fill-rule:evenodd"/><path d="M447.82,519.92c2.06,1.65,1,10.19,1,15.8-1.86,3.78-.64-11.6-1-15.81Z" style="fill:#83C5BE;fill-rule:evenodd"/><path d="M722.36,518.94h2v7.9h-2v-7.91Z" style="fill-rule:evenodd"/><path d="M717.42,520.9c.88.44,1.77.87,2,2-1.31,20.75,2.61,46.72-2,64.18C717.47,562.94,717.51,544.88,717.42,520.9Z" style="fill-rule:evenodd"/><path d="M712.47,527.82c2.37,29.9.53,52.24,1,83,.41,3.56-1.8,1.35-1-1V594c.1-23.63-.22-47,0-66.19Z" style="fill-rule:evenodd"/><path d="M706.55,535.71c1.78,23.95,2.07,40.27,1,61.22a559.38,559.38,0,0,1-1-61.22Z" style="fill-rule:evenodd"/><path d="M447.82,539.66c1,2.77,2.94,23.23-1,27.65,1.1-8.82.9-16.25,1-27.65Z" style="fill:#83C5BE;fill-rule:evenodd"/><path d="M657.18,546.58c3.9,8.07.06,18.19,1,34.56-4.12-7.09.55-19.87-1-34.56Z" style="fill-rule:evenodd"/><path d="M700.63,546.58c2.92,3.77,3.22,15.42,0,19.75.44-8,0-11,0-19.74Z" style="fill-rule:evenodd"/><path d="M818.15,546.58c1.56,5.72,2.65,18.87-1,24.69,2-6.57.53-16.58,1-24.7Z" style="fill:#83C5BE;fill-rule:evenodd"/><path d="M729.26,550.53c2.29,2.3,2.42,11.91,1,18.77-2.27-4.31-.32-12.82-1-18.76Z" style="fill:#83C5BE;fill-rule:evenodd"/><path d="M694.69,551.52c3.55,6.83,1.93,33.19,1,44.43-2.3-12.84-.33-30-1-44.43Z" style="fill-rule:evenodd"/><path d="M632.48,564.35c5.51,24-45.49,41.13-58.26,15.8,15.88,18.94,57.06,10.84,58.26-15.8Z" style="fill-rule:evenodd"/><path d="M689.76,564.35v15.8h-2c1.14-4.8-2.38-14.23,2-15.8Z" style="fill-rule:evenodd"/><path d="M722.36,564.35c3.56-.93,1.37,3.89,2,5.93-3.56.94-1.38-3.89-2-5.92Z" style="fill-rule:evenodd"/><path d="M620.65,567.32c1.13,14.07-27.4,19.76-37.53,8.89,3.53-3.16,7.22,3.17,12.84,3.95a23.57,23.57,0,0,0,24.69-12.84Z" style="fill-rule:evenodd"/><path d="M700.63,567.32c4-.38,1.09,6.16,2,8.89-4,.37-1.09-6.16-2-8.89Z" style="fill-rule:evenodd"/><path d="M446.83,568.31c2.79,2.08.65,8.31,1,12.83-2.27-2.33-.35-8.86-1-12.84Z" style="fill:#83C5BE;fill-rule:evenodd"/><path d="M645.32,569.29c2.82,6.23,4.31,27.93-1,32.59.53-10.66-1.13-23.5,1-32.58Z" style="fill:#83C5BE;fill-rule:evenodd"/><path d="M729.26,571.25c4.23,2.7-.17,11.31,2,16.79-4.37-1.85-.81-11.68-2-16.79Z" style="fill:#83C5BE;fill-rule:evenodd"/><path d="M800.38,571.25c1.79,10.2,1,34.49-3,45.43,1.27-14.82,2.91-29.32,3-45.42Z" style="fill-rule:evenodd"/><path d="M817.15,572.26c1.14-.16,1.75.22,2,1-.81,28.34-3.31,48.76-5.93,72.09-.59-24,3.23-49.4,4-73.07Z" style="fill:#83C5BE;fill-rule:evenodd"/><path d="M621.63,575.21c1.68-.37,1.86.77,2,2-8.06,11.69-34.08,14.53-44.44,3,7.37,1.06,14,6.67,23.71,5.93,7.11-.55,15.37-5.07,18.77-10.88Z" style="fill-rule:evenodd"/><path d="M674,578.18c4.92,13.87.65,25,3,35.55-4.78-8-.07-28.8-3-35.55Z" style="fill-rule:evenodd"/><path d="M700.63,578.18c3.57-.94,1.38,3.89,2,5.92-2.51-.11-2-3.3-2-5.92Z" style="fill-rule:evenodd"/><path d="M681.87,580.16c2.29,3.32.35,10.85,1,15.8-1.7-6.5-1.9-10.43-1-15.81Z" style="fill-rule:evenodd"/><path d="M687.79,581.15c3.28.34,1.55,5.69,2,8.88-4,.37-1.09-6.15-2-8.88Z" style="fill-rule:evenodd"/><path d="M446.83,583.11c2.26,3.11-.08,18.21-1,24.69-1-5.57.51-17.25,1-24.7Z" style="fill:#83C5BE;fill-rule:evenodd"/><path d="M700.63,585.1c3.56,4.74,2,16.83,1,24.69-2.3-6.29-.33-16.8-1-24.7Z" style="fill-rule:evenodd"/><path d="M717.42,588.05c4.51,5,.74,18.36,2,26.66-4.35-5.18-.86-18.24-2-26.66Z" style="fill-rule:evenodd"/><path d="M636.43,594c4.09-.14,1,6.87,2,9.87-4-1.79.3-6-2-9.87Z" style="fill-rule:evenodd"/><path d="M681.87,596.93c1.63.75,1.63,8.14,0,8.89C682.72,601.89,680.39,598.53,681.87,596.93Z" style="fill-rule:evenodd"/><path d="M694.69,596.93c3.77,3.1-.1,9.74,2,14.82-4.32-1.25-.83-10.31-2-14.81Z" style="fill-rule:evenodd"/><path d="M706.55,599.9c2.1-1.71,0,9.15,2,10.87-4.15-.13-1-7.6-2-10.88Z" style="fill-rule:evenodd"/><path d="M438.93,600.89a374.51,374.51,0,0,1-8.88,87.88c1.31-27,7.12-58,8.88-87.88Z" style="fill:#83C5BE;fill-rule:evenodd"/><path d="M706.55,612.74c3.45,6.22.06,14.78,2,20.74-4.15.53-1-14.8-2-20.74Z" style="fill-rule:evenodd"/><path d="M712.47,613.73c2.18.12.41,4.18,1,5.92-2.68,0-2.33-4.65-1-5.92Z" style="fill-rule:evenodd"/><path d="M443.87,616.69c4.45.63-.8,6.54,1,10.87-3.93-1.14.45-6.18-1-10.85Z" style="fill:#83C5BE;fill-rule:evenodd"/><path d="M700.63,616.69c4.32,4.57.86,16.91,2,24.69-4.49-4.41-.74-17-2-24.69Z" style="fill-rule:evenodd"/><path d="M717.42,616.69c3.39,16.15,3.15,50.24,0,63.2-.41-25.3.9-43.36,0-63.19Z" style="fill-rule:evenodd"/><path d="M712.47,621.63c2.28,3.31.34,10.85,1,15.8-2-1.4-1.16-12.58-1-15.81Z" style="fill-rule:evenodd"/><path d="M655.21,623.59c1.95,1.26,1.1,9.88,1,14.82-2.29-3-.35-10.18-1-14.81Z" style="fill-rule:evenodd"/><path d="M694.69,629.53c4.49,4.4.75,17,2,24.69-4.41-6.66-.41-15.83-2-24.69Z" style="fill-rule:evenodd"/><path d="M729.26,630.52c3,1.13,1,6.64,2,11.85-3.08-1.51-1.64-7.58-2-11.86Z" style="fill:#83C5BE;fill-rule:evenodd"/><path d="M441.9,638.42c2.73,7.69-.86,17.56-2,24.69-1.39-6.35,2.07-16.38,2-24.7Z" style="fill:#83C5BE;fill-rule:evenodd"/><path d="M712.47,640.39c1.89-2.15.62,7.22,1,9.87-1.88,2.16-.61-7.21-1-9.87Z" style="fill-rule:evenodd"/><path d="M700.63,645.32c4.18,6.09.57,16.55,2,26.66-4.49-5-.72-18.34-2-26.66Z" style="fill-rule:evenodd"/><path d="M706.55,645.32c2.51,1,1.68,4.47,1,6.91-2.2-.41-.39-4.86-1-6.92Z" style="fill-rule:evenodd"/><path d="M729.26,660.15c2.77-3.66,1.9,4.6,2,6.91-3.32-.68-.7-6.62-2-6.92Z" style="fill:#83C5BE;fill-rule:evenodd"/><path d="M722.36,661.13c1.68,1.48,2,7.61,1,11.85-2.27-2-.35-8.21-1-11.85Z" style="fill-rule:evenodd"/><path d="M712.47,663.1c2.21,3.06.39,18.68,1,26.66-2.84-6.1-.41-16.84-1-26.66Z" style="fill-rule:evenodd"/><path d="M413.26,675.94a7.67,7.67,0,0,1,10.86,3.95c4.93,16.74-25.9,8.23-10.86-4Zm-1,8.88" style="fill-rule:evenodd"/><path d="M794.44,680.87v7.9c-17.3,13.32-15.59-23.36,0-7.9Zm-10.86,6.92c2.69,2,9.5,1.46,8.89-3-.61-8.45-13.19-4-8.89,3Z" style="fill-rule:evenodd"/><path d="M447.82,687.79c5.54,4.76,9.84,15.71,8.89,23.7H427.08c9.43-5.37,16.71-12.9,20.74-23.69Z" style="fill:#83C5BE;fill-rule:evenodd"/><path d="M729.26,687.79c2.33,1.94,2,6.55,2,10.87-4.15-.11-1-7.56-2-10.86Z" style="fill:#83C5BE;fill-rule:evenodd"/><path d="M818.15,687.79c5.56,5.64,9.4,14.85,9.87,22.72-7.06,3.31-18.06,2-26.66,1q12.23-8,16.79-23.69Z" style="fill:#83C5BE;fill-rule:evenodd"/><path d="M386.6,690.76c5.91,6.27,9.19,15.17,17.77,18.76-6.64,3.78-17.58,1.65-24.69,1a31.06,31.06,0,0,1,6.92-19.74Z" style="fill:#83C5BE;fill-rule:evenodd"/><path d="M754.94,690.76c7.42,6.07,11.39,15.6,18.76,21.73-11.88,0-18.41-.79-26.66,0,0-9.9,4.67-15.09,7.9-21.73Z" style="fill:#83C5BE;fill-rule:evenodd"/><path d="M722.36,694.71c2,2.94,1.4,5.5,1,8.89-2.25-1.07-.37-6.22-1-8.89Z" style="fill-rule:evenodd"/><path d="M717.42,695.7c3.58,1.39.35,8.75,1,10.86-2.27-1.68-.37-7.53-1-10.85Z" style="fill-rule:evenodd"/><path d="M729.26,706.55c5,11.93.73,30.58,2,47.4-4.5-11.94-.72-32.19-2-47.41Z" style="fill:#83C5BE;fill-rule:evenodd"/><path d="M722.36,709.52c2.95,4.29,1.32,12.43,1,16.79-2.29-3.65-.35-11.51-1-16.8Z" style="fill-rule:evenodd"/><path d="M435,714.45c.88.44,1.77.87,2,2-2.57,33.48-2.3,64-5.93,96.77-.49-32.38,2.26-68.8,4-98.74Z" style="fill:#83C5BE;fill-rule:evenodd"/><path d="M449.8,714.45h7.9c1.24,28.85-4,65.29-5.93,94.81-.56,8.57,3.92,24.93-7.9,26.66-5.1-3.57-1.31-12.65-1-18.76,1.67-32,3.14-71.17,6.91-102.72Z" style="fill:#83C5BE;fill-rule:evenodd"/><path d="M822.08,714.45H829c-.09,28.73-3,64.58-4,97.77-.25,8.37,1.73,21.27-7.9,23.7-4.15-6.76-2.45-18.73-2-29.63,1.26-28.76,2.2-67.49,6.9-91.82Z" style="fill:#83C5BE;fill-rule:evenodd"/><path d="M809.26,715.44c1.15-.16,1.76.21,2,1-1.76,21.47.65,46.13-4,70.12.72-21.86,1.22-45,2-71.1Z" style="fill:#83C5BE;fill-rule:evenodd"/><path d="M693.71,754.94c-38.23,4-85.41,1-137.27,2H537.68c-2.34.82-4.55-1.39-1-1,47.8-.59,95.18-1.31,157-1Z" style="fill:#83C5BE;fill-rule:evenodd"/><path d="M696.68,755.94c3.64-2.28,11.51-.34,16.79-1-3,3.76-14.92,1.58-16.8,1Z" style="fill:#83C5BE;fill-rule:evenodd"/><path d="M523.86,756.92c1.37-2.25,6.87-.36,9.87-1-1.36,2.25-6.87.35-9.87,1Z" style="fill:#83C5BE;fill-rule:evenodd"/><path d="M685.8,766.79c1.3.35,1.56,1.74,3,2-2.65,79.92,2,192.49,1,286.37,0,4.73,2.42,12.13-3,14.82-1.33-102.7-3.34-197-1-303.17Z" style="fill:#83C5BE;fill-rule:evenodd"/><path d="M565.34,769.76c1.14-.16,1.75.22,2,1,.72,100.7,4.86,203.31,2,300.2,1.3,3.3,11.1-1.89,10.86,3-25.84-.59-59,1.22-80-1,20.41-2.3,45.1-.33,67.15-1-.58-86.2-2.75-187-2-299.21v-3Z" style="fill:#83C5BE;fill-rule:evenodd"/><path d="M691.74,770.75c3.4,91.75,2.46,206.07,3,298.23-4.8-100.75-2.4-182.9-3-298.23Z" style="fill:#83C5BE;fill-rule:evenodd"/><path d="M697.66,770.75c3-1.52,3,6.44,0,4.93v-4.93Z" style="fill:#83C5BE;fill-rule:evenodd"/><path d="M577.19,774.7c4.35,11.33,1.71,22.9,2,35.55-4.32-8.19-.86-24.15-2-35.55Z" style="fill:#83C5BE;fill-rule:evenodd"/><path d="M436,776.66c2-1.6.56,8.62,1,11.86-3.37-.72.28-7.14-1-11.86Z" style="fill:#83C5BE;fill-rule:evenodd"/><path d="M698.64,780.62c3,66,1.26,128.33,2,199.47-3.82-60.39-2.88-150.71-2-199.47Z" style="fill:#83C5BE;fill-rule:evenodd"/><path d="M571.26,786.55a7.91,7.91,0,0,1,1,7.9c-2.23-.74-.39-5.54-1-7.9Z" style="fill:#83C5BE;fill-rule:evenodd"/><path d="M807.28,789.5c3.3,1.87.62,4,1,7.9-2.22-.74-.37-5.54-1-7.9Z" style="fill:#83C5BE;fill-rule:evenodd"/><path d="M578.17,813.22c2.66,5.85.69,21.35,1,28.63-2.86-9.65-1-21.9-1-28.62Z" style="fill:#83C5BE;fill-rule:evenodd"/><path d="M430.05,815.18c1.75-2.63.72,5.79,1,7.9-1.75,2.64-.71-5.78-1-7.9Z" style="fill:#83C5BE;fill-rule:evenodd"/><path d="M571.26,824.07c4.33,1.26.86,10.33,2,14.81-4-1.64-1.12-10.06-2-14.8Z" style="fill:#83C5BE;fill-rule:evenodd"/><path d="M556.45,829c3.11,2.72.62,5.17,1,9.88-2.26-1.36-.37-6.86-1-9.87Z" style="fill-rule:evenodd"/><path d="M816.16,839.88c-.11,6.79-1.14,12.68-2,18.76-2.56-4.71,1.36-10.37-1-15.8-5.68,28.55-17.76,50.71-35.55,67.15,15.41-9,29.32-28,34.56-50.36.88,8.38-3.46,19.56-8.88,28.64-7,11.64-18.28,24.25-30.62,31.6-6.46,3.85-35.13,16.58-35.55,4-.14-4.39,8.6-7,12.84-9.87,18.78-12.67,38.36-45.49,17.78-74.07,13.34-.41,32.12.26,48.39,0Z" style="fill:#83C5BE;fill-rule:evenodd"/><path d="M556.45,840.86c1.44-.6,2,7.17,1,9.87-2.26-1.37-.37-6.87-1-9.87Z" style="fill-rule:evenodd"/><path d="M437,840.86c-7.44,11.36-16.72,26-12.84,45.43,1.61-9.25,1.36-20.37,4.94-27.65-9.34,34,14.11,55.61,37.53,66.16-4.87,13-27.1,4.43-33.58,1-24.24-12.9-39.74-45.82-39.5-82-.28-1.59.94-1.7,1-3q21.22,0,42.46,0Z" style="fill:#83C5BE;fill-rule:evenodd"/><path d="M578.17,846.78c1.75-2.64.72,5.78,1,7.9-1.75,2.64-.72-5.79-1-7.91Z" style="fill:#83C5BE;fill-rule:evenodd"/><path d="M571.26,854.68c3.29,1,1.38,6.28,1,8.89C570,862.52,571.87,857.37,571.26,854.68Z" style="fill:#83C5BE;fill-rule:evenodd"/><path d="M578.17,858.63c1.75-2.63.72,5.79,1,7.9-1.75,2.62-.72-5.78-1-7.9Z" style="fill:#83C5BE;fill-rule:evenodd"/><path d="M556.45,861.6c1.61,1.22,1.74,10.21,1,12.84C555.17,872.11,557.08,865.58,556.45,861.6Z" style="fill-rule:evenodd"/><path d="M571.26,879.38c3.75-.79,1.26,4.67,2,6.91-2-1-2.14-3.8-2-6.92Z" style="fill:#83C5BE;fill-rule:evenodd"/><path d="M556.45,881.34c2.1-.08.6,7.45,2,9.88-4.1.15-1-6.86-2-9.87Z" style="fill-rule:evenodd"/><path d="M578.17,888.27c2.64,3.64,1.38,9.35,1,12.83-2.27-2.33-.35-8.86-1-12.84Z" style="fill:#83C5BE;fill-rule:evenodd"/><path d="M556.45,899.12c3.82,2.76-.15,8.32,2,11.85-4.22-.4-.95-8.28-2-11.86Z" style="fill-rule:evenodd"/><path d="M572.25,908c2,10.58.75,26,1,35.56-2.3-9.87-.34-24-1-35.55Z" style="fill:#83C5BE;fill-rule:evenodd"/><path d="M578.17,909c4,49.79,2.06,99.9,3,152.07.28,1.77-.93,2-1,1-1.67-58.85-2-92.52-2-153.07Z" style="fill:#83C5BE;fill-rule:evenodd"/><path d="M676.92,933.68c2.26.83,2.7,6.07,1,7.9-2.2-.74-.37-5.54-1-7.9Z" style="fill-rule:evenodd"/><path d="M676.92,942.57c2.52.11,2,3.31,2,5.92-3.54.94-1.35-3.88-2-5.91Z" style="fill-rule:evenodd"/><path d="M572.25,951.46c3.27.34,1.55,5.69,2,8.88-4,.4-1.09-6.15-2-8.88Z" style="fill:#83C5BE;fill-rule:evenodd"/><path d="M572.25,961.33c3-1.51,3,6.45,0,4.93v-4.93Z" style="fill:#83C5BE;fill-rule:evenodd"/><path d="M572.25,976.15c3.58.7,1.36,7.2,2,10.87-1.88-2.4-2.13-6.44-2-10.85Z" style="fill:#83C5BE;fill-rule:evenodd"/><path d="M699.63,987c2.69,13.8,1.6,31.89,2,52.34-4.5-13.56-.7-35.49-2-52.34Z" style="fill:#83C5BE;fill-rule:evenodd"/><path d="M573.24,991.94c2.86,5.37-.86,17.32,2,22.71-.28,3.35-1.57,5.67-1,9.88-2.73-3.2.73-21.13-2-27.65C574.39,997.05,572.7,993.38,573.24,991.94Z" style="fill:#83C5BE;fill-rule:evenodd"/><path d="M573.24,1027.49c2.52,2.08,1.93,7.29,2,11.85-3.69-.91-1.29-7.92-2-11.85Z" style="fill:#83C5BE;fill-rule:evenodd"/><path d="M699.63,1040.33c4.26.68.91,9,2,12.84-3.78-1.14-1.2-8.65-2-12.84Z" style="fill:#83C5BE;fill-rule:evenodd"/><path d="M573.24,1042.32c4-.39,1.08,6.15,2,8.88C571,1049.83,575.09,1044.59,573.24,1042.32Z" style="fill:#83C5BE;fill-rule:evenodd"/><path d="M574.22,1055.16c3.06,11.37-1,20.83,0,3-1.18-1.31-.38-1.57,0-3Z" style="fill:#83C5BE;fill-rule:evenodd"/><path d="M683.84,1072c-19.05,1.26-43.6,2.79-58.27,3-1.29,0-1.55-2-3-2,17.93-3.82,41.23-2,61.23-1Z" style="fill:#83C5BE;fill-rule:evenodd"/><path d="M700.63,1072c-6.71,2.37-21.1.23-6.91,0,2.6,0,4.6,0,6.92,0Z" style="fill:#83C5BE;fill-rule:evenodd"/><path d="M626.56,1076.88c5.94-2.29,16.12-.34,23.7-1-5.91,2.3-16.11.33-23.69,1Z" style="fill:#83C5BE;fill-rule:evenodd"/><path d="M528.8,1081.82h18.76a12.29,12.29,0,0,1,2,8.88c-7.59,2.2-17,.3-20.74,0C527,1087.32,528.93,1086,528.8,1081.82Z" style="fill:#83C5BE;fill-rule:evenodd"/><path d="M654.21,1081.82h20.73c-.26,3.35.77,8-1,9.87-5.5-2.57-15.42.41-19.75-1Z" style="fill:#83C5BE;fill-rule:evenodd"/><path d="M592,1143c-6.6-2.36-4-11.49-5.93-16.78-13.59-38.1-76.2-36.59-89.86,3-1.87,5.41,1.89,13.7-6.91,13.82-5.13-4.71-3.34-15.16-3-21.72.74-12.9,2.39-24.92,14.82-27.65,21.22-4.66,59.22,2.76,81,1,13.35,6.36,15.14,35.18,9.87,48.39Z" style="fill:#83C5BE;fill-rule:evenodd"/><path d="M710.5,1144c-4.83-5.58-3.37-14.06-6.91-21.73-14.57-31.5-68.24-30.68-81,5.93-1.47,6.39,2.75,15.22-6.91,14.81-3.71-19.16-4.21-44.6,10.86-48.39,9.39-2.36,69.37-4.09,78,1,6.17,3.63,8.1,16.85,8.88,27.65.48,6.68,2.06,15.81-3,20.76Z" style="fill:#83C5BE;fill-rule:evenodd"/><path d="M530.77,1104.53h2c3.85,13.39,2.12,33.15,0,38.51-7-8.21-.29-27.21-2-38.52Z" style="fill:#83C5BE;fill-rule:evenodd"/><path d="M528.8,1105.51c-.09,16.7-.26,29.29-1,37.53-8.25-2.71.69-23.94-3.95-34.57-3.5,9,2.15,27.17-3,34.57-4.54-7.31-.71-23-2-33.58C521.81,1107.74,524.54,1105.86,528.8,1105.51Z" style="fill:#83C5BE;fill-rule:evenodd"/><path d="M515,1111.43c3.93,6.37,2,23.58,1,31.6-6.39-3.49-1.36-18.39-3-26.66-5.16,4.38.57,19.66-3,25.67-4.44-2.8-.79-13.7-2-19.75-4.9,4.57-1.25,14.07-3,19.75-2.24-3,.4-10.94-4-11.85A34.43,34.43,0,0,1,515,1111.43Z" style="fill:#83C5BE;fill-rule:evenodd"/><path d="M500.16,1136.12c1.51,0,2.16,7.32-1,5.93-.13-2.43-.15-4.74,1-5.92Z" style="fill:#83C5BE;fill-rule:evenodd"/><path d="M508.06,54.79c3,.72,2.91-1.7,5.93-1,.56,2.06,2.45,2.82,2,5.92-2.69.09-2-1.64-4,0,2.72,7-1.49,12.59-1,17.78C504.91,75.94,506.23,61.42,508.06,54.79Z" style="fill:#83C5BE;fill-rule:evenodd"/><path d="M657.18,282.91c18.49-2.62,22.46,11.9,15.8,20.74-13,17.21-35-11.57-15.81-20.74Zm12.84,6.9c.38,5.86-2.43,12.88-11.85,13.83,7.51,10.74,22.6-8.86,11.85-13.82Z" style="fill:#FCFAF9;fill-rule:evenodd"/><path d="M708.53,389.56c1.07-19.64-4.48-47.21-1-65.18,1.24-6.37,1.92,5.59,2,8.89.18,13.87.53,41.66-1,56.29Z" style="fill-rule:evenodd"/><path d="M517,84.42V229.58c7.91.88,18.42-3.86,26.66-5.92,1.44-4.15,1.62-9.57,3.95-12.84,9.51-3,17.57-7.45,23.7-13.82,1.68-17.1,3-33.35,4.94-45.43,9.77-6.77,33.82-6.93,42.46,1,5.18,12.88,1.75,28.88,5.93,40.49,1.69,4.69,6.33,6.64,5.92,11.85,8.74,1.14,14.45,5.3,20.74,8.88,2.6,2,1.21,8,3,10.87,26,2.31,46.23,10.39,62.22,22.71a73.06,73.06,0,0,1,1,15.8c11.65,3.38,23.47-2.27,32.59,2,1.89,2.38.63,7.93,1,11.85,3.85,2.07,11.35.49,16.79,1,2.61-19.45-1.25-35.54,1-55.3,1.13-4.94-7.66-3.47-4-7.9,0-6.25,10.07-4.05,11.85-1-5.23,18.7-1.87,39.93-2,63.2,3.68,2.24,12-.14,14.81,3,3.71,3.91,4.22,15,0,18.77-13.49,3.1-25.75-.35-37.53,2-1.74,4.84-.21,12.95-4.93,14.81-7.66,2.22-19.36.4-28.64,1-1.78,11-1,25-1,38.51,0,13.32-2.25,27.65,3,36.54,24.14,4.83,63.11-5.17,81,5.93-4.94,18.1-18.48,27.6-26.66,42.46,31.61,5.73,56.9,24,60.24,57.28,5.73,57.34-2.95,135-15.8,183.67,13.72,15.34,13.09,32.87,11.85,61.23-1.22,27.77-1.7,61.82-4,83.94-.84,8.18-5.76,10.71-7.9,16.79-1.73,4.89.33,8.13-1,14.81-5.89,29.63-27.16,57.44-55.3,69.12-7.38,3.07-25.42,10-28.64,0-2.57-8,12.32-13,19.75-18.76,20.71-16,31.37-58.71-2-72.09-.78-22.23-3.57-44.51-4.94-66.16-2-32.14-10.26-63.23,7.9-83-8.3-19.69-14.09-41.87-16.79-67.15-2.06,31.89-2.2,58.26-2,99.74.09,17.3,3.42,35.18-7.9,45.42-7.84.58-15.47-.33-21.73,1-1.15,93.44-1.6,177.54,0,269.58.32,18.31,4.63,33.62-6.91,46.42H679.89v8.88c10,2.46,22-3.31,30.61,4,11.86,10,5.59,34.19,7.9,54.32-44.63,1.09-70.62.76-107.64,0,.85-27.35-6.25-68.28,41.48-58.27,3.52-16.29-19.38-5.28-27.65-10.86-9.66-6.52-4.59-57.32-4.94-79-1.07-66.54-.65-175.31-2-234-8.9-2.3-22-.33-32.59-1-3.32,98.59,1,191.25,1,282.42,0,11.42,2.81,25.79-6.92,32.59-5.08,2.82-16.68-.88-21.72,2-1.36,1.27-1,4.29-1,6.91,13.33,6.1,29.6-3.37,37.53,6.92,8.91,11.57,3.63,34.29,3.95,53.32-37.29-.27-85.93.76-112.58-1-1.61-17.23-5-39.39,3.95-51.36,8.14-10.87,25.32-3.49,36.54-8.88v-4c-2-5.92-14.12-1.68-20.74-3-15.54-11.91-9.31-34.32-9.88-52.33-2.84-90.48-1.67-176.93-3-262.69-3.24-2-10-.53-14.81-1-13.32-9.81-8.65-34.71-8.89-52.34-.59-43.22-2.73-77.15-2-123.44-6.1,30.44-7.58,65.5-17.78,91.84,27,31.45,2.79,105.94,4.94,152.08C443,848.88,429.92,862.41,432,882.32c1.23,11.67,10.17,25.18,20.74,31.61,5.22,3.17,13.59,2.89,15.8,6.91s-.1,10-3.95,13.82c-43.95,0-68.55-33.52-74.06-76-.55-4.26.8-9.77,0-13.83-.72-3.64-4.06-7-4.94-10.86-3.22-14.22-3.11-37.89-4.94-60.24-2.8-34.27-9.49-67.38,4.94-86.9-9.3-24-14-56.25-16.79-89.87-2.7-32.51-7.19-67-4.93-96.77,2.72-35.94,28.65-54.83,62.21-61.23-6-15.07-17.8-24.34-24.69-38.51,11.06-9.74,28.13-6.75,42.47-6.92,14.91-.17,30,2,43.45-1,2.59-26.72-.29-53,1-73.08-9.45-2.72-25.38,1-33.57-3-2.46-2.81-2.57-8-3-12.84-11.4-2.76-29.09.78-40.49-2-3.24-4.05-4.41-14.89-1-19.75,4.78-2.14,13.38-.46,19.76-1-.32-15.76,3.83-38.75,1-53.33-1.07-5.48-5.16-5.35-4-9.87,2.67-3.68,11.06-3.83,13.83,0-4.89,14.47-3.06,44.09-2,63.2h10.87c3.33-3.25,1.56-11.6,5.92-13.82,7.34-1.57,21-.4,31.6-1-2.74-17.32,7.85-28.71,22.72-31.6V85.4c-6.11-5.94-7.59-21.11-4.94-32.58,16.75-13,17.36,22.42,11.85,31.63Zm126.41,522.4a443,443,0,0,0-28.64,44.44c11.74-13.61,19.86-30.84,33.57-42.47-.83-4.12,1.92-4.66,2-7.9,49.44-67.08,100.08-133,147.14-202.44-51.21-.52-95.38,1.35-150.1,1-.89,21,1.67,45.58-1,62.22-.56-14-1.27-37.78-1-62.22-3.35.27-8-.76-9.87,1-1.09,18.11,2.36,29.33-1,41.48V399.44H617.68c-2.66,2.61.76,11.29-2,13.83V399.44c-53,.21-79.9.4-133.32,0-2.72,19.4.87,44.81-2,66.16-.66-17-.74-32.26-1-48.38-.09-5.7,2.36-13-2-17.78-3.12,2.15,1.79,12.33-3,12.84-.4-4.21,1-10.17-1-12.84-7.25,5.6.09,25.77-3.95,34.57-3.15-9.22,1.26-28.38-2-34.57-6.65-1.05.43,11.62-4.94,11.85-1.06-6.28,4-11.47-3-11.85-3.07,3.49.69,15.05-3,18.76-.52-6.06,1.13-14.29-1-18.76-7.13,3.74,0,21.74-4,28.64-1.93-6.39-.2-20.58-1-28.64-8.19-1.28-9.78,4.53-14.81,0-1.73,1.35,2.51,10.77-2,11.85V400.43c-4.9-.33-22.51-3.18-28.64,1,60.89,85.28,124.27,173,188.61,257.75,2.12-.63,13.22,2.57,15.8-2-1.16-.15-2.8.17-3-1,13.3-17.31,25.71-35.51,38.52-53.32-5.68-2.15-1.43-12.91-3-22.71-6.67-.76-2.07,9.77-4.93,12.83-2.81.18,1.19-6.46-3-4.93-5.42,4.5-.1,11.61-4,15.8-2.78-1.76,2.68-7.27-2-8.89-4,0,0,7.92-3.95,7.9v-4.94c-21.62,12.81-48.11,4.43-59.25-10.86-22.37-30.7-4.31-74.55,31.6-77,29.1-2,47.92,19.44,49.37,52.34-.39,2.37,4.5-.54,3,3-.37,10.94.08,17.64,0,29.63,7-8.66-.29-26.41,4-38.51,1.15,7.66-.44,21.2,0,31.6,4.61,1,7.13-7.82,10.86-10.87-1.32-51.2-1.73-100.19,0-155,1.18,47.7,1,96,1,151.09,7.7-3.38,3.95-17,3.95-29.62,0-13.72-.8-28.53,1-39.5,2.31,18.43.33,41.14,1,61.22,7.12-2.46,5.37-7.88,4.94-13.82-2.28-31.38.94-80.85,1-112.58.67,32.26,1.25,69.26,1,116.53,7.12-3.29,4.92-13.53,4.94-20.74,0-25-1-56.22,1-83.94.74,36.09.53,63.78,0,95.79,4.75.15,4.38-4.84,6.91-6.91-3-16.12-3.38-46.15,0-64.19V537.7c6.89-4.72,4-19.07,4-30.61,0-12.07-1.42-24.88,2-30.62.11,14-.08,36.09,0,53.33,11.08-7.48-1.06-37.34,5.92-43.45.61,11.24-1.25,24.95,1,34.56,9-5.06-1.23-19.4,4.94-26.66,1.18,5.73-2.45,16.27,2,18.76,4.8-4.74-.32-19.41,3-25.67,3,4.85-.87,15,1,18.76,7.82-1.47,0-13.13,4.94-15.8.81,2.48-1.92,8.5,2,7.9,3.14-2.46-1.62-12.82,3-13.83.62,2.69-1.25,7.84,1,8.89,4-4.59,8.54-13.83,12.84-14.81-31.55,42.1-64.42,86.14-94.86,128.39ZM511,77.5c-.5-5.19,3.71-10.81,1-17.78,2-1.64,1.26.09,4,0,.48-3.1-1.41-3.86-2-5.92-3-.72-2.91,1.7-5.93,1C506.23,61.41,504.91,75.93,511,77.5Zm2,154.05c.26-35.67,2-76.79-1-114.55C512.71,158.23,510.33,194.62,513,231.55Zm72.08-79c5.2-2.42,13.9,2.87,17.77-2C596,150.71,589.22,148.15,585.08,152.55Zm2,42.46c1.45-12.86,3.36-24.53-1-35.55,1.53,11.82-4.32,26.52,1,35.55Zm5.92,0c1.09-10.46,2.95-25.28-1-32.59.83,12.35-1.9,24.83,1,32.59Zm6.92,0c1.61-10.45,1.84-23.82-2-30.61,1.85,6.91-3,24.07,2,30.61Zm5.92,1c2.29-9.06,1-19.72-1-27.65-.08,11.15-2.09,17.33,1,27.65Zm-28.63-15.8c.51-3.07,2.15-6.88-1-6.91C576.79,175.33,575,179.78,577.19,180.2Zm3.95,6.91c.52-4.08,1.89-6.77-1-7.9C580.52,193.77,580,195.92,581.14,187.11ZM574.22,193c3.41-.26,2.22-10.24,2-10.86C574.7,185,575.26,189.79,574.22,193Zm1,4.94c-2,1.26-5,1.57-4.94,4.93,20.88-.62,33.63,1.45,53.33,1-8.54-9.57-32.4-3.79-48.38-5.92Zm24.69,7.9c-17.76-.28-37.77-2.45-44.44,5.92,31.26-.54,58.5,2.95,86.91,0-13-7-24.68-5.65-42.47-5.92Zm27.65,10.86c-21.31-.57-55.85-.94-78-2-3.07.22-1.67,4.92-2,7.9,24.65,2.15,52.41.63,75.05,1,7.36.12,22.56,5.81,25.67-4-4.71-5.56-13.56-2.77-20.74-3ZM769.76,273c4.36-17.09.17-30.37,2-48.39-.21-1.11-1.1-1.54-2-2Zm-60.24-25.69c-21.5-20.19-56.75-20.72-93.82-20.73-47.59,0-95.78-4.8-124.42,21.72-3.21,60.1,1.42,98.26-1,145.16,64.62-.22,167.3.9,221.19-1-1.26-49.2,2.71-99.6-2-145.17Zm8.88,19.75c-1.71,6.34-1.55,19.32,0,25.68h23.7c.64-4.63-1.29-11.83,1-14.81,1.23,9,1.07,24.39,1,33.57-7.91-.34-13.39,1.75-21.73,1-6.1,1.18,3.88.93,7.9,1,6.14.09,12.83.48,14.82-1,1.77-18.06,3.23-27.83,0-45.43-6.73-1.63-19.9-1.63-26.64,0Zm-260.71,3c1.67,9.85,1.09,20.19,2,28.63,9.53.75,17.72-.61,27.65,1,1.07-8.67.24-20.27,0-30.61-9.6.61-21.64-1.22-29.62,1Zm-1,16.79c-1.33-5,1.58-9.35-2-10.87-.14,4.44.11,8.45,2,10.88ZM753,280.92c1,4.13-2.08,6.69,0,8.89,9.55.65,21.71-1.31,29.62,1-10.39,1.42-20-2.36-27.65,2h28.64c2.52-2.42,1.53-8.35,3-11.85-10.72-1.4-19.76.52-33.61,0Zm-338.72,9.89c10.29,1.63,27.23,1.63,37.53,0V283.9H414.25v6.92Zm373.28,2c3.76-.81,3.76-7.09,0-7.9v7.9Zm-363.41,2c6.05-1.19,16.95,2.47,19.75-2-5.25,2.23-15.5-1.29-19.75,2Zm293.3,2c5.76.63,22.09,3.79,24.69-2-4.61.53-20.27-2-24.7,2Zm23.69,3H718.4c4.6,3.86,16.35,3.21,22.7,0Zm-280.46,2c.91,2.33,24.17,4.62,26.66-1-8.63.58-19.65-1.23-26.66,1Zm243,92.83c-67.65,0-138.86.2-218.25,3,104.26-1,211.31,2.49,305.14-3-22.43-.11-59,0-86.89,0ZM455.72,477.44c-9.6-10.81-15.88-24.94-26.66-34.56-27.64,1.3-59.82,22.19-62.22,55.3-2.36,32.54.31,63.9,4,98.75,3.46,33.1,6.95,70.79,18.76,92.82,8.59,16,31.24,26.92,46.42,12.84,7.39-6.86,13-27.09,16.78-42.46,8.48-34.72,10.87-70,10.87-106.65,0-28.08,4.07-58.68-6.92-73.08-1.33,3.49,1.75,14.1-1,18.77-1.39-5.35-1.75-16.38,0-21.71Zm299.21-9.87c-5.85,8.08-13.57,14.68-15.8,22.71-4.14,14.91-2.85,42.71-3,61.23-.25,41.79,4,81.46,14.81,115.54,7.13,22.51,19.38,54.69,48.39,42.46,12-5.06,17.83-26.51,21.73-44.44,9-41.3,11.85-76.88,11.85-120.47,0-23.23,2-42.86-3-60.24-7.37-25.76-30-37.26-57.27-41.48-5.92,5.85-11.11,15.48-17.77,24.68ZM509,555.46c-6.32-9-12.79-19.11-19.75-28.64-6.7-9.17-14-19.16-21.73-24.69,3,72.35-.76,123.9,2,196.52.68,18.17-2.55,54.84,7.9,62.21,3.33-.4-2.63-3.83,2-3,15.14-.35,28.09-1.13,42.47-1,1,0,.77-1.26-1-1-14.49-.66-31.6,1.31-44.44-1,9.44-.08,20.81-.51,34.57-1,49.69-1.73,138.16,1.38,215.27,0,.44-91.9,1-163.42,0-244.91-22.48,21.29-36.54,51-57.27,74.07.16,13.67,1.37,24.11-1,40.48-.54-11.31,1.15-24.85-1-34.56-7.39,2.52-2.9,12.07-4.93,15.8-2.86-.44.87-7.46-2-7.9-1.55,2.44-6,7.13-4.94,8.89,2.19-6.1,1.32,12.89,0,15.8-.55-5,1.51-12.7-2-14.81-6.45,6.88-13.83,19.63-22.71,31.6-11.12,15-23.32,37.28-39.5,24.69-24.23-34.7-49.83-73.29-76-102.71,7.77,10.67,16.19,20.68,22.71,32.59-7.91-12-20.88-23.67-24.69-36.54-.09,4.57-2.28-1.2-4-1Zm-16.79-25.68c6.71,8.44,12.21,18.08,19.75,25.67-5.8-8.69-12.54-21.68-19.75-25.67ZM482.38,516c3.59,3.64,5,9.48,9.87,11.85-2.44-4.17-6.74-11.68-9.87-11.86Zm247.87-7.91c-.43-1.86,1.35-5.95-2-4.93-2,2,0,4.21,2,4.93Zm0,61.23c1.44-6.86,1.31-16.47-1-18.76.63,5.94-1.31,14.45,1,18.75Zm1,18.76c-2.15-5.48,2.26-14.1-2-16.79,1.14,5.11-2.42,14.94,2,16.79Zm0,54.32c-1-5.2,1-10.71-2-11.85.31,4.28-1.13,10.35,2,11.86Zm0,24.68c-.08-2.31.8-10.57-2-6.91,1.25.32-1.37,6.26,2,6.92ZM427.07,711.47h29.62c.95-8-3.34-18.94-8.88-23.7-4,10.79-11.32,18.32-20.74,23.7Zm304.17-12.83c0-4.32.36-8.93-2-10.87,1,3.32-2.2,10.77,2,10.88Zm70.11,12.83c8.6,1,19.6,2.33,26.67-1-.48-7.87-4.32-17.08-9.88-22.72q-4.59,15.66-16.79,23.7Zm-421.67-1c7.11.66,18.05,2.79,24.69-1-8.58-3.59-11.86-12.49-17.78-18.76a31.06,31.06,0,0,0-6.91,19.74Zm367.34,2c8.26-.78,14.79-.05,26.67,0-7.37-6.13-11.34-15.66-18.77-21.73-3.23,6.64-7.9,11.84-7.9,21.73ZM731.24,754c-1.25-16.83,3-35.48-2-47.41,1.23,15.22-2.55,35.47,2,47.41ZM379.68,717.41c3.81,42,4.4,85.17,10.87,119.5,11.25-.09,26.38-2.57,37.52-4-.14-36.5,6.55-82.17,3-118.5-2.25,10.59,0,25.71-3,35.55-.59-12.75,1-28.21,0-35.55H379.68v3ZM431,813.21c3.63-32.75,3.36-63.3,5.93-96.78-.21-1.11-1.1-1.54-2-2-1.69,29.91-4.44,66.33-4,98.74Zm11.85,3.95c-.32,6.12-4.12,15.19,1,18.76,11.82-1.73,7.34-18.08,7.9-26.66,1.93-29.51,7.17-66,5.92-94.8h-7.9c-3.76,31.55-5.23,70.75-6.91,102.71ZM746.05,715.43c2.36,36.9,5.43,83.46,8.89,119.49,13.6,4.2,21.63-4.06,38.51-2,1.1-18.46,0-38.56,3-59.25-.39,11.81.43,21.67,0,30.61-.34,7.13-4.27,23.53,1,28.64,3.75-20.47.55-41.81,4-61.22,1.71,22.1-4.3,41.53,1,61.22,3.19-40.75,2.75-80.64,3.95-118.5-5.59,5.66-2.56,15.93-3,24.69-.47,10-.74,21.47-3,26.66-.38-16.22,3.49-38.59,0-51.35-5.73,15.33-.05,37.26-4.93,54.31-.17-18.6,1.72-35.14,1-54.31-16.46.61-35.5-1.31-50.35,1Zm69.13,90.86c-.48,10.9-2.18,22.87,2,29.62,9.62-2.43,7.65-15.33,7.89-23.7,1-33.19,3.87-69,4-97.76h-6.92c-4.69,24.3-5.63,63-6.9,91.82Zm-7.9-19.74c4.6-24,2.19-48.65,4-70.12-.22-.77-.83-1.14-2-1-.76,26-1.26,49.21-2,71.09ZM437,773.71c2.15-15.3.87-23.38,3-38.52-3.52,9.65-3.62,28-3,38.52Zm99.74-17.78c-3.56-.4-1.35,1.81,1,1h18.76c51.86-1,99,2.06,137.27-2-61.84-.35-109.22.37-157,1Zm176.77-1c-5.28.64-13.14-1.3-16.78,1,1.87.62,13.8,2.8,16.79-1Zm-179.73,1c-3,.62-8.51-1.26-9.87,1,3-.63,8.5,1.27,9.87-1Zm87.89,10.85c-1.81,24.23-1,53.71-1,79,0,82.82.6,152.15,2,224.16h62.21c-2.17-94.38.12-200.54-4-304.15-5.42,3.88-3,12.13-3,17.78,0,47.21.84,101.06-1,142.2-.5-60.63.57-114.73-1-160-22.61-1.66-34.63.82-51.35-1a6.87,6.87,0,0,0-3,2Zm-125.41-1a2.69,2.69,0,0,0-2,3c2.27,97.82-.63,212.55,4.94,301.21,21.34.23,42.69-.13,66.16,0-.88-115-2-188.62-2-284.41,0-4.91,3.25-14.87-4-17.78-5.25,15.17.64,41.46-3,58.27V767.78c-16.94-3.82-40.25-1.24-60.23-2ZM686.81,1070c5.39-2.69,2.92-10.09,3-14.81,1-93.88-3.64-206.46-1-286.38-1.41-.23-1.67-1.62-3-2-2.38,106.12-.38,200.45,1,303.14ZM565.34,772.7c-.78,112.2,1.4,213,2,299.22-22.06.65-46.74-1.32-67.15,1,21,2.21,54.14.41,80,1,.24-4.85-9.56.34-10.86-3,2.88-96.89-1.26-199.51-2-300.2-.22-.77-.83-1.15-2-1v3ZM694.7,1069c-.51-92.16.43-206.48-3-298.23.59,115.33-1.81,197.48,3,298.23Zm3-293.3c3,1.51,3-6.45,0-4.94v4.94ZM579.17,810.24c-.26-12.65,2.38-24.22-2-35.55,1.11,11.39-2.35,27.36,2,35.55ZM437,788.51c-.42-3.23,1-13.45-1-11.85,1.26,4.71-2.39,11.13,1,11.86ZM700.63,980.1c-.72-71.14,1-133.45-2-199.48-.91,48.74-1.85,139,2,199.47ZM572.25,794.43a7.85,7.85,0,0,0-1-7.9c.6,2.38-1.24,7.18,1,7.9Zm236,3c-.37-3.92,2.31-6-1-7.9.61,2.36-1.24,7.16,1,7.9Zm-229.1,44.43c-.3-7.28,1.67-22.78-1-28.63,0,6.74-1.87,19,1,28.64ZM431,823.08c-.27-2.12.76-10.54-1-7.9.27,2.11-.76,10.54,1,7.9Zm142.2,15.78c-1.11-4.48,2.36-13.55-2-14.81.85,4.74-2,13.17,2,14.81Zm194.54,1c20.59,28.57,1,61.4-17.77,74.06-4.24,2.86-13,5.49-12.84,9.88.42,12.63,29.08-.1,35.55-4,12.33-7.34,23.66-20,30.61-31.6,5.42-9.07,9.77-20.25,8.89-28.63C807,882,793,901,777.64,910c17.78-16.45,29.86-38.6,35.54-67.15,2.36,5.43-1.56,11.09,1,15.8.83-6.08,1.86-12,2-18.77-16.25.27-35-.41-48.37,0Zm-194.54,9.87c0-4.33,0-9.25-1-9.88-.89,1.4-2.8,10.11,1,9.87Zm-178.74-8.89c-.05,1.26-1.26,1.37-1,3-.24,36.15,15.26,69.07,39.5,82,6.48,3.44,28.72,12,33.58-1-23.42-10.57-46.86-32.19-37.52-66.18-3.58,7.28-3.33,18.39-4.94,27.65-3.88-19.4,5.4-34.07,12.84-45.43H394.48Zm184.67,13.82c-.27-2.11.76-10.53-1-7.9.27,2.12-.76,10.55,1,7.91Zm-6.91,8.89c.38-2.61,2.3-7.91-1-8.89C571.86,857.36,570,862.51,572.24,863.56Zm6.91,3c-.27-2.12.76-10.54-1-7.9.27,2.12-.76,10.52,1,7.9Zm-5.93,19.74c-.72-2.24,1.78-7.7-2-6.91-.16,3.14,0,6,2,6.92Zm5.93,14.83c.39-3.48,1.65-9.2-1-12.84.63,4-1.28,10.5,1,12.84Zm-5.93,42.44c-.23-9.56,1.06-25-1-35.55.66,11.53-1.31,25.68,1,35.55Zm6.92,118.51c.05,1,1.26.77,1-1-.9-52.18,1-102.29-3-152.08,0,60.55.3,94.22,2,153.07Zm-5.93-101.71c-.43-3.2,1.3-8.54-2-8.89.89,2.73-2,9.28,2,8.89Zm-2,5.91c3,1.51,3-6.44,0-4.93v4.93Zm2,20.75c-.61-3.67,1.61-10.17-2-10.87-.14,4.44.11,8.48,2,10.88Zm127.39,52.34c-.37-20.45.72-38.53-2-52.34,1.27,16.85-2.53,38.78,2,52.34ZM572.24,996.87c2.7,6.52-.76,24.45,2,27.65-.58-4.21.71-6.53,1-9.88-2.83-5.39.89-17.34-2-22.71C572.68,993.37,574.38,997,572.24,996.87Zm3,42.47c-.05-4.57.55-9.77-2-11.85.69,3.93-1.72,10.93,2,11.85Zm126.4,13.82c-1.07-3.87,2.29-12.16-2-12.84.77,4.19-1.81,11.71,2,12.84Zm-126.4-2c-.89-2.73,2-9.27-2-8.88C575.08,1044.58,571,1049.82,575.2,1051.19Zm-1,6.9c-1,17.88,3,8.42,0-3-.38,1.42-1.19,1.68,0,3Zm48.39,14.83c1.41,0,1.67,2,3,2,14.67-.17,39.22-1.7,58.27-3-20-1-43.3-2.79-61.23,1Zm71.1-1c-14.19.23.2,2.37,6.91,0-2.32,0-4.33,0-6.92,0Zm-43.46,3.93c-7.58.65-17.76-1.31-23.7,1,7.58-.64,17.78,1.33,23.69-1ZM528.79,1090.7c3.78.29,13.15,2.19,20.73,0a12.26,12.26,0,0,0-2-8.89H528.79C528.92,1086,527,1087.31,528.79,1090.7Zm125.4,0c4.33,1.39,14.25-1.59,19.75,1,1.76-1.86.72-6.52,1-9.87H654.19c0,3,0,5.92,0,8.89Zm-72.08,4c-21.75,1.77-59.75-5.65-81-1-12.43,2.73-14.08,14.75-14.81,27.65-.38,6.56-2.17,17,3,21.73,8.8-.12,5-8.42,6.91-13.83,13.66-39.55,76.28-41,89.86-3,1.89,5.29-.67,14.42,5.93,16.79,5.26-13.21,3.47-42-9.87-48.39Zm131.35,28.62c-.79-10.8-2.72-24-8.89-27.64-8.64-5.09-68.63-3.36-78-1-15.07,3.79-14.56,29.23-10.86,48.38,9.67.41,5.45-8.42,6.91-14.81,12.75-36.6,66.42-37.42,81-5.92,3.54,7.66,2.09,16.15,6.91,21.72,5-5,3.48-14.1,3-20.76ZM549.52,1143h2c2.26-6.14.28-17.8,2-21.73,4,7.55-2.88,17.73,2,21.73h2c2.93-3.33-1-13.47,2-16.79V1143c6.73-1.07,18,1.15,24.68,0-.26-24.63-19.37-42.74-47.4-39.51,2.22,16.38-4.53,31.25,2,39.51,4.11-5.5-.93-23.39,4-32.59.62,9.07-3.78,22,1,32.59,6.75-3,.54-21.25,3.95-24.69,3.79,5.09-3.32,19,2,24.69Zm106.66-38.52c1.78,12.37-3.68,32,3,39.5,5.69-7.15-1.77-27.45,4-34.56-.62,7.71-.1,15.58,0,23.7,0,3.1-4.12,9.53,2,10.86,4.66-6.9,1-16,3.95-24.69,1.11,7.78-2.34,20.12,2,24.69,4.74-2.83-.27-15.41,3-19.75,3.33,6-4.79,17.51,3.95,19.75,3.67-1.49,0-8.82,3-12.84V1143c4.58.71,16,2.11,22.71,0-.2-27.6-20.24-44.32-47.41-38.52ZM532.74,1143c2.12-5.36,3.85-25.12,0-38.52h-2c1.69,11.31-5.07,30.31,2,38.52Zm-13.83-33.59c1.27,10.59-2.57,26.27,2,33.58,5.1-7.4-.55-25.56,3-34.57,4.64,10.63-4.31,31.86,3.95,34.57.73-8.24.9-20.83,1-37.53C524.53,1105.85,521.8,1107.73,518.91,1109.45Zm107.64,18.76c5.39,2.23-1.29,12.32,4.94,14.81.65-6.59-1.31-15.79,1-20.74,3.5,4.4-2.15,18,3,20.74,4.92-2.91-1.31-21.28,3.95-26.66.72,7.68-4.71,22.61,2,26.66,2.64-7.68-1.21-23.66,2-30.61,2.16,10.23-2.5,22.94,2,30.61h2c3-8.9-1-24.68,2-33.57,4.43,9.25-3.89,31.28,4,34.56,2.43-15.81.51-25.2,2-38.52-15.18,1.92-21.91,12.32-28.59,22.73Zm-125.42,2c4.36.91,1.71,8.82,3.95,11.85,1.72-5.68-1.94-15.19,3-19.75,1.19,6-2.47,16.94,2,19.75,3.54-6-2.2-21.29,3-25.68,1.6,8.28-3.43,23.18,3,26.66,1-8,2.94-25.22-1-31.6a34.37,34.37,0,0,0-13.83,18.78Zm-2,11.83c3.15,1.4,2.49-5.91,1-5.92-1.14,1.18-1.12,3.49-1,5.91ZM635.44,579.15c18-27.19-.81-62.49-28.64-66.16-45.28-6-65.8,51.28-32.59,77,.16-1.16-.17-2.8,1-3,21.11,18.92,59.22,3.9,63.2-20.74,2.05,6.7-4.28,10.18-3,12.84Zm8.88,22.71c5.3-4.66,3.81-26.36,1-32.59-2.12,9.09-.46,21.92-1,32.58ZM623.58,592c4.06-3.51,8.6-6.54,10.86-11.85-3.56,3.38-10.08,9-10.87,11.86Zm-14.8,6.92c-.17-1.33,5-2,2-3-5.63,2.44-16.29,2.9-2,3Z" style="fill-rule:evenodd"/><path d="M788.52,407.33c-8.34,16.35-24.38,33.56-35.55,50.37,8.36-16.31,24.52-33.41,35.55-50.38Z" style="fill-rule:evenodd"/><path d="M750,458.69c1.39,3.51-7.31,13.65-11.85,17.78,3.69-6.18,8.93-10.83,11.85-17.78Z" style="fill-rule:evenodd"/><path d="M772.71,442.88c27.3,4.22,49.9,15.72,57.27,41.48,5,17.38,3,37,3,60.24,0,43.59-2.88,79.17-11.85,120.47-3.9,17.93-9.72,39.38-21.73,44.44-29,12.23-41.26-20-48.39-42.46C740.2,633,735.92,593.3,736.17,551.51c.11-18.52-1.17-46.32,3-61.23,2.23-8,10-14.63,15.8-22.71,6.64-9.17,11.84-18.8,17.75-24.67Zm29.63,27.67c12.91,30.52,7.67,76.14,5.93,114.55a1046.56,1046.56,0,0,1-11.86,114.55c4.06-3.89,1.92-1.41,6.92,0,16.14-50.44,20.41-128.47,16.79-183.68-1.61,7.8,3.12,20.75-2,22.72.37-10.21,1.17-14.66,0-24.69,2.15-.63,3.14,2.8,3-1-.16-13-.07-26.26-5.92-33.57,2,8.23,6.63,22.06,3,29.62-.8-16.31-3.68-30.56-11.85-39.5,5.34,8.86,7.34,20.25,5.92,32.59-.94-9.63-2.09-25.73-9.89-31.58Zm3.95,93.8c1-20.19,2.37-45.53,1-67.15-.4-6.29-.26-14.5-4.94-18.76,7.23,22.47,2.27,67,3.95,85.9Zm-5.91,4c5-22.74,2.59-54.22,2-79-.22-.77-.83-1.15-2-1,1.79,24.43,1.39,58.58,0,80Zm5.91,15.78c.23-4.35,2.62-9.15,0-17.77,1.3,4.27-1.18,10.15-1,7.9-2.45,27.63-3.4,67.58-7.89,94.8.16,1.48-.36,3.64,1,4,3.47-26.53,6.75-66.25,7.91-88.89Zm-8.88,32.6c4-10.94,4.76-35.23,3-45.42-.07,16.07-1.71,30.57-3,45.42Zm-3,72.08v-7.9c-15.59-15.46-17.3,21.23,0,7.91Z" style="fill:#83C5BE;fill-rule:evenodd"/><path d="M802.34,478.43c4.68,4.27,4.54,12.47,4.94,18.76,1.38,21.62,0,47-1,67.16-1.68-18.87,3.28-63.41-3.95-85.91Z" style="fill-rule:evenodd"/><path d="M513,556.45c3.8,12.87,16.78,24.54,24.69,36.54-6.53-11.91-14.94-21.93-22.72-32.59,26.22,29.42,51.82,68,76,102.7,16.19,12.6,28.38-9.71,39.5-24.69,8.89-12,16.27-24.71,22.72-31.6,3.48,2.12,1.41,9.78,2,14.82,1.32-2.92,2.19-21.91,0-15.8-1.05-1.76,3.39-6.45,4.94-8.89,2.85.44-.88,7.46,2,7.9,2-3.73-2.45-13.28,4.94-15.8,2.14,9.71.45,23.25,1,34.56,2.36-16.38,1.14-26.81,1-40.49,20.73-23,34.79-52.77,57.27-74.06,1,81.48.43,153,0,244.91-77.11,1.37-165.58-1.73-215.28,0-13.75.48-25.12.91-34.56,1,12.84,2.3,30,.33,44.44,1,1.76-.27,2,.94,1,1-14.37-.14-27.32.64-42.46,1-4.6-.87,1.36,2.56-2,3-10.46-7.37-7.22-44-7.9-62.21-2.75-72.63,1-124.17-2-196.52,7.76,5.53,15,15.52,21.73,24.69,7,9.53,13.42,19.61,19.75,28.64,1.7-.16,3.9,5.61,4,1Zm163.92,57.28c-2.32-10.6,2-21.68-3-35.56,2.92,6.75-1.79,27.6,3,35.55Zm45.44-86.91h2v-7.9h-2v7.9Zm-4.94,60.24c4.59-17.46.68-43.43,2-64.18-.21-1.11-1.1-1.54-2-2C717.51,544.88,717.47,562.94,717.42,587.06ZM712.47,594v15.8c-.82,2.34,1.39,4.54,1,1-.45-30.71,1.39-53-1-82.95-.22,19.26.1,42.58,0,66.19Zm10.87-49.37c.87-6.78,0-9,1-14.82-3.13,1.68-2.27,10.31-1,14.81Zm-15.81,52.31c1.09-20.95.79-37.27-1-61.22a557.07,557.07,0,0,0,1,61.22Zm-6.9-30.61c3.22-4.33,2.92-16,0-19.75,0,8.71.44,11.7,0,19.74ZM695.7,596c.94-11.24,2.56-37.6-1-44.44.63,14.48-1.33,31.6,1,44.44Zm-7.91-15.79h2v-15.8c-4.34,1.58-.83,11-2,15.81Zm36.53-9.89c-.59-2,1.59-6.86-2-5.92.59,2-1.6,6.85,2,5.92Zm-21.72,5.94c-.89-2.73,2-9.27-2-8.89.87,2.73-2,9.26,2,8.89Zm19.76,81.95c3-22,3.23-62.82,0-86.9-.33,32.51.67,60.68,0,86.91ZM702.6,584.09c-.6-2,1.59-6.86-2-5.92,0,2.62-.54,5.81,2,5.92ZM682.86,596c-.65-5,1.29-12.48-1-15.8-.92,5.39-.72,9.32,1,15.81Zm6.9-5.92c-.43-3.19,1.3-8.54-2-8.88.88,2.73-2,9.25,2,8.88Zm11.85,19.74c1-7.86,2.57-19.94-1-24.68.65,7.92-1.31,18.42,1,24.69Zm17.78,4.94c-1.24-8.31,2.53-21.63-2-26.66,1.12,8.42-2.38,21.48,2,26.66Zm-37.52-8.89c1.63-.75,1.63-8.14,0-8.89C680.39,598.53,682.72,601.89,681.87,605.82Zm14.81,5.94c-2.08-5.08,1.79-11.72-2-14.81,1.12,4.47-2.38,13.53,2,14.8Zm11.85-1c-1.94-1.72.13-12.58-2-10.87,1,3.28-2.2,10.75,2,10.88ZM559.41,621.63c-5.85-4.69-7.82-13.24-13.82-17.78,3.24,6.64,9,16,13.82,17.78Zm149.12,11.86c-1.91-6,1.48-14.52-2-20.74,1,5.94-2.2,21.26,2,20.74Zm4.94-13.85c-.57-1.73,1.19-5.8-1-5.92-1.37,1.26-1.72,5.92,1,5.92ZM702.6,641.37c-1.11-7.78,2.34-20.12-2-24.69,1.22,7.69-2.53,20.31,2,24.7Zm14.82,38.52c3.15-13,3.39-47.06,0-63.2.9,19.83-.41,37.88,0,63.19Zm-3.95-42.45c-.64-5,1.29-12.49-1-15.8-.19,3.23-1,14.41,1,15.81Zm-83,4.93c3.17-6.14,13.21-15.62,11.85-19.75-2.34,7.56-11.68,13.34-11.86,19.76Zm25.67-4c.12-4.94,1-13.55-1-14.81.63,4.61-1.31,11.81,1,14.8Zm40.49,15.79c-1.23-7.66,2.52-20.3-2-24.69,1.53,8.89-2.46,18.06,2,24.7Zm16.79-4c-.37-2.66.9-12-1-9.88.35,2.67-.91,12,1,9.87ZM702.6,672c-1.42-10.11,2.2-20.57-2-26.66,1.25,8.3-2.53,21.62,2,26.66Zm4.93-19.76c.7-2.44,1.53-5.87-1-6.91.59,2-1.22,6.51,1,6.92ZM607.81,670c5.94-4.92,13.34-13.64,14.81-19.75-3.21,7.68-13.08,13.91-14.81,19.76Zm115.53,3c1-4.25.69-10.37-1-11.86.64,3.65-1.29,9.83,1,11.86Zm-9.87,16.79c-.59-8,1.23-23.6-1-26.66.55,9.8-1.88,20.55,1,26.66Zm9.87,13.82c.42-3.39,1-6-1-8.89.61,2.67-1.26,7.82,1,8.89Zm-4.94,2.95c-.64-2.11,2.6-9.47-1-10.86.61,3.34-1.29,9.19,1,10.87Zm4.94,19.76c.33-4.36,2-12.5-1-16.79.64,5.29-1.31,13.15,1,16.79Z" style="fill:#83C5BE;fill-rule:evenodd"/><path d="M512,555.47c-7.54-7.6-13-17.24-19.75-25.68,7.21,4,13.95,17,19.75,25.68Z" style="fill:#83C5BE;fill-rule:evenodd"/><path d="M492.26,527.82c-4.87-2.36-6.27-8.2-9.87-11.85,3.13.18,7.43,7.69,9.87,11.86Z" style="fill:#83C5BE;fill-rule:evenodd"/><path d="M638.42,566.32c-4,24.64-42.09,39.66-63.2,20.74-1.16.16-.83,1.8-1,3-33.21-25.74-12.69-83,32.59-77,27.82,3.68,46.66,39,28.64,66.17-1.33-2.66,5-6.14,2.94-12.84Zm-30.61,2c9.53-10.62.28-27.61-12.84-23.7-11.12,3.3-8,20.48,2,24.68,3.42.73,9.36-1.07,9.87,0-6.13,5.09-13.18-.55-18.76-2,1.65,3.2,2.52,3.19-1,4.94,7,6.72,26.95,5.22,28.64-4.94-3.89,4.32-15.31,10.6-22.72,4.94,8.6,3.25,21.07-2.34,19.75-8.89-1.29,2-1.59,5-5,4.91Zm-33.59,11.85c12.77,25.34,63.78,8.23,58.27-15.8-1.2,26.64-42.39,34.74-58.26,15.81Zm21.73,0c-5.62-.78-9.31-7.11-12.84-3.95,10.13,10.88,38.66,5.18,37.53-8.88A23.54,23.54,0,0,1,596,580.17Zm6.9,5.92c-9.76.74-16.33-4.87-23.7-5.92,10.35,11.56,36.38,8.72,44.44-3-.11-1.21-.3-2.34-2-2-3.4,5.79-11.66,10.31-18.78,10.85Z" style="fill:#83C5BE;fill-rule:evenodd"/><path d="M724.32,529.79c-1,5.81-.11,8-1,14.81-1.28-4.47-2.14-13.1,1-14.8Z" style="fill-rule:evenodd"/><path d="M612.74,563.37c1.32,6.55-11.15,12.15-19.75,8.89,7.41,5.66,18.83-.61,22.72-4.94-1.69,10.16-21.63,11.67-28.64,4.94,3.51-1.75,2.64-1.73,1-4.94,5.58,1.42,12.63,7.06,18.76,2-.51-1.08-6.45.72-9.87,0-10-4.21-13.1-21.39-2-24.69,13.12-3.9,22.38,13.08,12.84,23.7,3.34.09,3.64-2.88,4.91-4.91Zm-16.79,0c2.94-3.56,9.63-6.67,6.91-12.84,2.46-.15,3.06,1.56,4.94,2-5.87-16-27.45,5.2-11.85,10.87Z" style="fill-rule:evenodd"/><path d="M798.39,673c-1.34-.31-.82-2.48-1-4,4.5-27.22,5.45-67.16,7.9-94.8-.2,2.26,2.29-3.63,1-7.9,2.62,8.62.22,13.43,0,17.78-1.16,22.64-4.43,62.36-7.91,88.89Z" style="fill-rule:evenodd"/><path d="M722.36,571.25c3.23,24.08,3,64.9,0,86.91.67-26.23-.33-54.4,0-86.91Z" style="fill-rule:evenodd"/><path d="M634.47,580.16c-2.26,5.32-6.8,8.34-10.87,11.85.79-2.86,7.32-8.49,10.88-11.85Z" style="fill:#83C5BE;fill-rule:evenodd"/><path d="M610.75,596c3,1-2.14,1.63-2,3-14.32-.06-3.67-.52,2-3Z" style="fill:#83C5BE;fill-rule:evenodd"/><path d="M545.59,603.86c6,4.53,8,13.08,13.82,17.77-4.8-1.79-10.58-11.13-13.82-17.77Z" style="fill-rule:evenodd"/><path d="M642.37,622.61c1.36,4.13-8.67,13.61-11.85,19.75.17-6.4,9.52-12.18,11.86-19.74Z" style="fill-rule:evenodd"/><path d="M622.61,650.26c-1.47,6.11-8.86,14.82-14.81,19.75,1.72-5.83,11.59-12.06,14.8-19.74Z" style="fill-rule:evenodd"/><path d="M439.92,735.2c-2.1,15.14-.81,23.22-3,38.51-.65-10.55-.56-28.87,3-38.52Z" style="fill:#83C5BE;fill-rule:evenodd"/><path d="M572.25,839.88c1,.62,1,5.54,1,9.87-3.8.24-1.89-8.47-1-9.87Z" style="fill:#83C5BE;fill-rule:evenodd"/><path d="M655.21,1105.51c-1.47,13.31.46,22.7-2,38.51-7.85-3.27.47-25.3-4-34.56-3,8.9,1,24.68-2,33.58h-2c-4.47-7.68.18-20.38-2-30.62-3.18,6.95.67,22.94-2,30.62-6.69-4-1.25-19-2-26.67-5.25,5.39,1,23.76-3.95,26.67-5.11-2.79.54-16.34-3-20.74-2.29,5-.34,14.14-1,20.74-6.23-2.5.45-12.58-4.93-14.82,6.63-10.43,13.36-20.83,28.6-22.73Z" style="fill:#83C5BE;fill-rule:evenodd"/><path d="M529.79,245.39c51.53-.1,99,4.17,149.11,2,8.74-.39,18.92-4.18,26.66,2-23.13,4.49-62.23.73-91.84,2,16.14,2.3,36.54.33,54.32,1-15.89,4.05-32.79.36-52.34,1,3.35,21.39.1,54.73,2,82,14.93.42,22.45-.57,33.58,1,1.15,10.13,2.7,29-1,37.52-24.55.21-64.8-.15-95.79,0-3.22-8.94,1.06-26.14-2-37.52,9.8-1.67,21.56,2,32.59-2,1.78-23.92-2.31-50.67,0-71.1.41-3.63-.17-6.55,3-8.89-31.61-1.9-64,.09-94.81,0-2.46-9.25,15.19-5.57,7.9-10.86,6.33-.91,16.56,2.07,19.75-2,55.32,4.59,119.15.67,177.76,2,5.71-.53,3.42,1.76-1,1-53.39.26-115.19-.54-167.88.95ZM594,251.31c-4.3.64-11.16-1.29-13.82,1C584.44,251.66,591.32,253.59,594,251.31Zm-8.9,86.91c-9.38,1.17-23.49-2.42-29.63,2,7.27,1.71,15-.62,24.69,2H559.4c1.08,7.15,1.14,15.32,1,23.7h82c-1.28-6.28-1-14.12-1-21.72-5.36-4.52-19.87.12-26.66-3,7.69-3.5,24.57,2.18,30.62-3H615.69c-3.5-.78-2.48-6.07-5.92-6.91-2.26,5.92,4,8.42,2,10.86-2.18-.78-2.47-3.45-4-4.93,1.45-22.87-2.31-58.72,2-79-8.29.39-15.47-.33-22.71-1,.42,26.86,1.86,50.07-2,81Zm-10.86,30.6c24.85-.79,40.32,2.55,64.19,0-18.47-1.64-49-1.64-64.2,0Z" style="fill-rule:evenodd"/><path d="M745.07,267.11c3.23,17.6,1.77,27.37,0,45.43-2,1.47-8.69,1.08-14.82,1-4-.07-14,.18-7.9-1,8.34.76,13.82-1.33,21.73-1,.08-9.18.23-24.55-1-33.58-2.28,3-.35,10.19-1,14.82H718.4c-1.55-6.36-1.71-19.34,0-25.68,6.73-1.62,19.9-1.62,26.64,0Z" style="fill:#83C5BE;fill-rule:evenodd"/><path d="M552.5,294.77c-2.24-.72-3-3-4-4.94-1.8,1.17-.78,5.15-2,6.92-5,5.2-14.92.44-18.76,3-9.64-20.35,27.27-26.84,24.69-5Z" style="fill:#FCFAF9;fill-rule:evenodd"/><path d="M540.65,311.54c-3.29-4.92-5.91-1.93-8.89-4-7.56-5.13-10.71-18.17-4-25.68,11.57-12.83,35.49,2.79,24.69,20.74C549.76,307.22,543.79,305.75,540.65,311.54Zm-12.84-11.83c3.84-2.52,13.77,2.23,18.76-3,1.2-1.76.18-5.74,2-6.91,1,2,1.71,4.22,4,4.94,2.58-21.86-34.33-15.38-24.69,5Z" style="fill-rule:evenodd"/><path d="M711.48,392.53c-53.9,1.88-156.58.76-221.19,1,2.41-46.9-2.22-85.07,1-145.17,28.64-26.52,76.84-21.74,124.43-21.72,37.07,0,72.32.54,93.82,20.74,4.71,45.57.74,96,2,145.16ZM697.66,244.4c4.41.77,6.7-1.52,1-1-58.61-1.3-122.44,2.62-177.75-2-3.2,4-13.42,1.06-19.75,2,7.28,5.3-10.37,1.61-7.9,10.86,30.76.09,63.19-1.9,94.8,0-3.14,2.34-2.55,5.26-3,8.89-2.31,20.44,1.78,47.18,0,71.1-11,4-22.79.31-32.58,2,3,11.39-1.25,28.59,2,37.52,31-.15,71.24.22,95.79,0,3.7-8.55,2.14-27.39,1-37.52-11.13-1.56-18.64-.57-33.58-1-1.86-27.24,1.38-60.58-2-82,19.55-.63,36.45,3.06,52.34-1-17.78-.66-38.18,1.31-54.31-1,29.6-1.24,68.7,2.53,91.83-2-7.73-6.16-17.91-2.36-26.66-2-50.16,2.21-97.58-2.07-149.11-2,52.68-1.52,114.48-.72,167.87-1Zm10.87,76c.69-16.09-.39-44,0-68.14-.21-.77-.82-1.15-2-1,2,18.62-.41,45.94,2,69.13ZM669,254.27c10.21-.65,23,1.31,31.61-1-10.53.31-20-3.08-31.6,1ZM520.9,272c.31,1.34,1.4,1.89,1,3.95,4.8,2.79,10.57-1.38,16.78-2,7.08-.68,14.4,2.23,18.76,0-2-16.69-31.28-13-36.53-2ZM643.36,276c5,5.28,12.64-.69,19.75-1,8-.34,18.89,7.64,20.73-1-6-10.67-37.58-13.86-40.5,2ZM552.5,302.65c10.8-17.95-13.12-33.57-24.69-20.74-6.76,7.51-3.61,20.55,4,25.68,3,2,5.6-1,8.89,4C543.79,305.75,549.76,307.22,552.5,302.65Zm114.55,7.91c3.44-.8,10.07-6.48,10.86-12.84,1.72-13.91-10-18.51-17.78-16.79-23,5.07-11.31,33.85,6.9,29.63Zm42.47,22.71c0-3.3-.74-15.26-2-8.89-3.5,18,2.05,45.54,1,65.18,1.55-14.63,1.2-42.43,1-56.29Z" style="fill:#83C5BE;fill-rule:evenodd"/><path d="M738.14,478.43c-4.29,1-8.85,10.22-12.83,14.81-2.24-1.05-.38-6.2-1-8.88-4.59,1,.17,11.36-3,13.82-3.9.61-1.16-5.42-2-7.9-4.93,2.67,2.88,14.33-4.93,15.8-1.86-3.71,2-13.91-1-18.76-3.29,6.26,1.83,20.93-3,25.67-4.42-2.48-.8-13-2-18.76-6.17,7.26,4,21.6-4.94,26.66-2.24-9.6-.37-23.32-1-34.56-7,6.12,5.16,36-5.93,43.45-.08-17.24.11-39.34,0-53.32-3.39,5.73-2,18.54-2,30.61,0,11.54,2.94,25.89-4,30.61V475.47c-3.39,18-3,48.07,0,64.19-2.54,2.07-2.16,7.06-6.92,6.91.53-32,.74-59.7,0-95.79-1.94,27.73-.93,59-1,83.94,0,7.22,2.18,17.45-4.94,20.74.27-47.26-.31-84.26-1-116.53,0,31.73-3.26,81.21-1,112.58.43,5.94,2.18,11.36-4.94,13.82-.65-20.08,1.32-42.79-1-61.22-1.78,11-1,25.79-1,39.5,0,12.6,3.75,26.25-3.95,29.63.06-55.06.2-103.4-1-151.09-1.72,54.85-1.32,103.83,0,155-3.73,3-6.25,11.91-10.86,10.86-.43-10.39,1.16-23.94,0-31.6-4.25,12.1,3.08,29.85-4,38.51.08-12-.37-18.69,0-29.62,1.53-3.51-3.36-.6-3-3C644.85,529.47,626,508,596.93,510c-35.9,2.47-54,46.32-31.6,77,11.14,15.29,37.64,23.67,59.25,10.86v4.94c4,0,0-7.92,3.95-7.9,4.65,1.63-.81,7.14,2,8.89,3.85-4.18-1.48-11.3,4-15.8,4.15-1.52.15,5.11,3,4.94,2.86-3.07-1.74-13.6,4.94-12.84,1.54,9.81-2.71,20.56,3,22.71-12.8,17.81-25.21,36-38.51,53.33.16,1.15,1.8.83,3,1-2.58,4.55-13.69,1.35-15.8,2C529.63,574.43,466.24,486.69,405.35,401.4c6.13-4.16,23.74-1.32,28.64-1v10.87c4.48-1.09.24-10.51,2-11.85,5,4.53,6.63-1.28,14.82,0,.79,8.05-.94,22.24,1,28.63,4-6.9-3.18-24.9,4-28.63,2.11,4.46.46,12.69,1,18.76,3.65-3.71-.12-15.28,3-18.76,7,.37,1.9,5.56,3,11.85,5.36-.24-1.71-12.91,4.94-11.85,3.23,6.18-1.17,25.35,2,34.56,4-8.8-3.29-29,3.95-34.56,1.94,2.66.59,8.62,1,12.83,4.75-.51-.15-10.68,3-12.83,4.34,4.74,1.89,12.08,2,17.77.26,16.12.34,31.36,1,48.39,2.84-21.35-.74-46.77,2-66.16,53.42.4,80.32.2,133.31,0v13.82c2.74-2.53-.68-11.22,2-13.82h16.78v42.46c3.35-12.15-.09-23.37,1-41.48,1.87-1.75,6.52-.72,9.88-1-.29,24.43.43,48.25,1,62.21,2.67-16.64.1-41.22,1-62.21,54.72.35,98.89-1.51,150.1-1-47.06,69.46-97.7,135.35-147.14,202.44,0,3.23-2.81,3.77-2,7.9-13.72,11.63-21.83,28.86-33.58,42.46a447.76,447.76,0,0,1,28.64-44.44c30.46-42.25,63.32-86.29,94.81-128.39ZM628.53,421.16c1.64-5.82,1.79-17.61-1-19.75.11,3.12-.94,15.19,1,19.74Zm-5.92-3c.37-4.41,1.53-11.52-1-15.8.64,4.95-1.31,12.49,1,15.81Zm19.76,34.56c-3.52-14.25,2.22-37.77-3-50.36,1.81,19.17-1.94,32.49,3,50.35Zm10.85,31.6c-1.17-16.71.32-54.63-2-82,.61,20.19-2.12,58,2,82Zm-213.3-68.15c.92-1.88,2.85-11.6-1-11.85.63,3.67-1.27,9.85,1,11.86ZM753,457.71c11.17-16.81,27.21-34,35.55-50.37-11,17-27.19,34.05-35.55,50.36ZM656.2,414.26c1,52.17-1.15,81.17,2,118.5.8-33-.42-74.49,0-120.48-.22-.77-.83-1.14-2-1v3Zm-209.36,5.91c-.6-2.36,1.24-7.16-1-7.9.14,3.06-2.35,6.14,1,7.91Zm37.53,63.22c3.43-22.08,2.84-54,1-71.1-.44,25.78.3,44.74-1,71.09Zm-21.73-54.33c3.74-1.22,2.12-13,1-15.8-1.65,5.09-.41,8.63-1,15.81Zm13.83,15.81c-.85-11.47,1.79-25.41-2-31.6,1.27,9.91-2.56,24.94,2,31.6Zm-18.76-5.94c.84-6.77,1.48-12-1-18.76.65,5.94-1.3,14.47,1,18.75ZM671,459.67c.84-11.8-1.42-25,0-31.6-3.26,8.19-3,24,0,31.6ZM491.28,489.31c1.22-19.46,2.49-43.39-1-57.28C491,450.31,488.85,475.88,491.28,489.31Zm4,1c3.62-7.12,2.46-25.44,1-31.6-.5,12.49.84,21.55-1,31.59Zm242.92-13.82c4.54-4.13,13.24-14.27,11.86-17.78-2.93,6.94-8.17,11.59-11.86,17.77ZM669,483.39c3.26-2.85,3.26-18.88,0-21.73.27,9.33.77,12,0,21.73Zm-166.89,5.92c-1.16-5.11,2.41-14.92-2-16.79,1.15,5.11-2.41,14.91,2,16.79ZM671,502.14c-1.15-5.1,2.41-14.91-2-16.78,1.13,5.11-2.43,14.91,2,16.79Zm-12.84,79c-.93-16.37,2.92-26.49-1-34.57,1.53,14.7-3.14,27.47,1,34.57Zm-19.74,22.71c-.95-3,2.12-10-2-9.88,2.25,3.84-2,8.08,2,9.87Z" style="fill:#83C5BE;fill-rule:evenodd"/><path d="M455.72,499.18c2.74-4.66-.35-15.28,1-18.77,11,14.39,6.91,45,6.91,73.08,0,36.65-2.39,71.93-10.86,106.65C449,675.5,443.37,695.74,436,702.6c-15.17,14.08-37.82,3.18-46.41-12.84-11.81-22-15.3-59.72-18.76-92.82-3.65-34.85-6.31-66.21-3.95-98.75,2.39-33.11,34.58-54,62.21-55.31,10.78,9.63,17.07,23.75,26.66,34.57-1.76,5.33-1.39,16.35,0,21.72Zm-14.81-14.81c-.14-1.84-.65-3.3-2-3.95.56,78.14-.38,149.13-13.83,216.27,3.94-2.31,2.83,1.16,3,4.93,3.82-.19,2.66-4.65,6.92-2,15-65,20.29-157.09,14.81-223.18-1.85,8.65,1.52,12-2,17.77-.59-8,1-18.12-4.94-20.74-.24,4,1,9.52-2,10.88ZM434,593c2-33.18,3.18-72.52,1-106.65-.85,28.17-1.75,73-1,106.65Zm15.8,33.56c6.4-33.89,9.26-83.62,4.93-125.41,1.66,34.61-.76,85.86-4.93,125.42Zm-25.68,53.33a7.67,7.67,0,0,0-10.86-3.95c-15,12.18,15.79,20.7,10.86,3.95Z" style="fill:#83C5BE;fill-rule:evenodd"/><path d="M442.88,473.5c5.94,2.62,4.36,12.76,4.94,20.73,3.49-5.81.13-9.12,2-17.77,5.48,66.09.16,158.14-14.81,223.18-4.26-2.68-3.1,1.78-6.91,2-.14-3.77,1-7.24-3-4.94,13.44-67.14,14.39-138.13,13.82-216.27,1.33.65,1.84,2.12,2,3.95,2.94-1.35,1.74-6.83,2-10.87Zm-1,27.66c1.9-2,.66-6.47-1-7.9.6,2.36-1.24,7.16,1,7.91ZM448.81,517c-.27-2.11.76-10.54-1-7.9.27,2.12-.76,10.55,1,7.9Zm-8.89,82.95c2.71-32.48,3.14-53.89,3-89.86-.21-.77-.82-1.15-2-1,1,34.28-2.51,64.24-1,90.84Zm8.89-64.19c0-5.61,1.07-14.16-1-15.8.35,4.23-.87,19.6,1,15.8Zm-2,31.61c3.93-4.42,2-24.87,1-27.65-.09,11.38.11,18.8-1,27.65Zm1,13.83c-.34-4.53,1.8-10.76-1-12.84.64,4-1.28,10.5,1,12.84Zm-2,26.66c.9-6.48,3.24-21.58,1-24.69-.47,7.45-1.93,19.13-1,24.7Zm-15.8,81a374.51,374.51,0,0,0,8.88-87.88C437.17,630.74,431.36,661.79,430.05,688.77Zm14.81-61.22c-1.79-4.33,3.46-10.24-1-10.87,1.44,4.7-2.94,9.74,1,10.88Zm-4.94,35.55c1.12-7.13,4.71-17,2-24.69.09,8.34-3.37,18.36-2,24.69Z" style="fill-rule:evenodd"/><path d="M812.21,502.14c1.42-12.33-.59-23.72-5.92-32.58,8.17,8.94,11,23.18,11.85,39.5,3.67-7.57-1-21.4-3-29.63C821,486.75,820.94,500,821.1,513c.18,3.78-.81.36-3,1,1.17,10,.37,14.49,0,24.69,5.1-2,.37-14.91,2-22.71,3.62,55.21-.64,133.23-16.78,183.68-5-1.42-2.87-3.89-6.92,0A1044.45,1044.45,0,0,0,808.26,585.1c1.75-38.42,7-84-5.92-114.55,7.82,5.83,9,21.92,9.89,31.57Zm-1,84.92c2.62-28.11,4.8-49.14,1-75,1.27,26.62-2.44,54.18-1,75Zm5.92-15.81c3.63-5.82,2.54-19,1-24.68-.43,8.14,1,18.14-1,24.69Zm-4,74.07c2.62-23.33,5.12-43.74,5.93-72.09-.22-.77-.83-1.15-2-1-.73,23.67-4.55,49-4,73.07Z" style="fill-rule:evenodd"/><path d="M607.81,552.5c-1.88-.43-2.49-2.13-4.94-2,2.72,6.17-4,9.28-6.92,12.84-15.59-5.68,6-26.92,11.86-10.87Z" style="fill:#FCFAF9;fill-rule:evenodd"/><path d="M792.47,684.82c.61,4.42-6.2,4.93-8.89,3-4.3-6.94,8.28-11.42,8.89-3Z" style="fill:#83C5BE;fill-rule:evenodd"/><path d="M379.68,714.45h48.39c1,7.34-.59,22.8,0,35.55,3-9.84.72-25,3-35.55,3.59,36.33-3.1,82-3,118.51-11.14,1.38-26.27,3.86-37.52,3.95-6.47-34.32-7.06-77.48-10.87-119.49v-3Z" style="fill:#83C5BE;fill-rule:evenodd"/><path d="M796.42,714.45c.74,19.17-1.15,35.71-1,54.32,4.88-17-.8-39,4.94-54.32,3.48,12.76-.39,35.13,0,51.35,2.22-5.19,2.49-16.64,3-26.66.41-8.76-2.62-19,3-24.69-1.2,37.87-.76,77.76-3.95,118.51-5.29-19.7.72-39.13-1-61.23-3.4,19.41-.2,40.75-4,61.23-5.26-5.12-1.33-21.51-1-28.64.43-9-.39-18.8,0-30.62-2.95,20.7-1.86,40.8-3,59.26-16.87-2.09-24.91,6.18-38.51,2-3.46-36-6.53-82.59-8.89-119.49,14.83-2.29,33.87-.37,50.35-1Z" style="fill:#83C5BE;fill-rule:evenodd"/><path d="M556.45,767.78V826c3.6-16.81-2.28-43.1,3-58.26,7.21,2.9,4,12.87,4,17.77,0,95.79,1.1,169.39,2,284.41-23.48-.13-44.82.24-66.17,0-5.57-88.65-2.66-203.38-4.94-301.2a2.7,2.7,0,0,1,2-3c20,.76,43.3-1.82,60.24,2Zm1,71.09c-.37-4.71,2.12-7.16-1-9.87.62,3-1.27,8.51,1,9.87Zm0,11.86c1-2.71.45-10.48-1-9.87.62,3-1.27,8.49,1,9.87Zm0,23.71c.75-2.63.62-11.62-1-12.84C557.08,865.58,555.17,872.11,557.44,874.44Zm1,16.77c-1.38-2.43.12-10-2-9.87.94,3-2.12,10,2,9.87Zm0,19.76c-2.13-3.52,1.84-9.09-2-11.85,1,3.59-2.24,11.47,2,11.86Z" style="fill:#83C5BE;fill-rule:evenodd"/><path d="M624.6,764.83c16.72,1.8,28.74-.68,51.35,1,1.55,45.24.48,99.34,1,160,1.83-41.14,1-95,1-142.2,0-5.65-2.45-13.9,3-17.77,4.06,103.61,1.77,209.77,4,304.14H622.62c-1.37-72-2-141.34-2-224.16,0-25.3-.82-54.78,1-79a6.49,6.49,0,0,1,2.94-2Zm53.32,176.76c1.72-1.84,1.27-7.08-1-7.9.59,2.36-1.24,7.16,1,7.9Zm1,6.9c0-2.62.55-5.82-2-5.93.59,2-1.59,6.86,2,5.92Z" style="fill:#83C5BE;fill-rule:evenodd"/><path d="M547.56,1118.35c-3.41,3.44,2.8,21.67-3.95,24.69-4.77-10.58-.37-23.51-1-32.59-4.88,9.2.16,27.09-4,32.59-6.51-8.26.24-23.13-2-39.51,28-3.22,47.14,14.88,47.41,39.51-6.66,1.15-18-1.07-24.69,0v-16.79c-2.93,3.32,1,13.46-2,16.79h-2c-4.85-4,2-14.18-2-21.73-1.69,3.93.29,15.59-2,21.73h-2c-5.29-5.7,1.82-19.61-2-24.7Z" style="fill:#83C5BE;fill-rule:evenodd"/><path d="M703.6,1143c-6.75,2.11-18.13.71-22.71,0v-11.85c-3,4,.71,11.35-3,12.84-8.74-2.24-.61-13.71-3.95-19.75-3.24,4.34,1.77,16.92-3,19.75-4.32-4.57-.86-16.9-2-24.69-2.92,8.65.71,17.79-3.95,24.69-6.1-1.33-1.94-7.76-2-10.86-.1-8.12-.62-16,0-23.7-5.72,7.11,1.74,27.41-4,34.56-6.64-7.51-1.18-27.13-3-39.5,27.16-5.81,47.21,10.92,47.41,38.52Z" style="fill:#83C5BE;fill-rule:evenodd"/></svg>