<svg width="20" height="15" viewBox="0 0 20 15" fill="none" xmlns="http://www.w3.org/2000/svg">
<g clip-path="url(#clip0_1_6)">
<path d="M8.98991 14.8682C8.54043 14.8317 8.08888 14.7851 7.63734 14.7567C7.01878 14.7182 6.35899 14.6513 5.88888 14.2702C5.30744 13.7979 4.65177 13.8445 4.00435 13.7533C3.14249 13.6317 2.29301 13.4878 1.50538 13.0925C1.17979 12.9399 0.929125 12.6665 0.80847 12.3324C0.57548 11.7243 0.288882 11.1162 0.0476449 10.508C-0.0100223 10.3557 -0.0100223 10.1881 0.0476449 10.0357C0.628039 8.85764 1.35753 7.75635 2.21878 6.75805C2.53837 6.37291 3.03115 6.30804 3.4229 6.0648C3.58349 5.98065 3.71916 5.85704 3.81672 5.70602C3.91071 5.48239 4.06545 5.28847 4.26399 5.14547C4.46254 5.00247 4.69726 4.91589 4.94249 4.89521C5.07836 4.87427 5.20653 4.81951 5.31479 4.73613C5.42306 4.65275 5.50783 4.54353 5.56105 4.41886C6.41866 2.98945 7.44425 1.66413 8.61672 0.470207C8.7337 0.356157 8.87392 0.26775 9.02815 0.210802C9.18238 0.153855 9.34713 0.129657 9.51156 0.139802C10.5239 0.0891261 11.5342 0.0303424 12.5487 -6.30127e-05C13.1672 -0.0162792 13.7239 0.166153 14.0105 0.826964C14.4064 1.73507 14.8167 2.63507 15.2002 3.54723C15.2391 3.68269 15.3131 3.80589 15.415 3.90469C15.517 4.00349 15.6433 4.07451 15.7817 4.11075C16.0595 4.19694 16.3234 4.32186 16.5652 4.48169C16.7502 4.60273 16.903 4.7657 17.0107 4.95689C17.1183 5.14808 17.1777 5.3619 17.1837 5.58034C17.2045 5.7491 17.2634 5.91114 17.3562 6.0546C17.449 6.19805 17.5732 6.31928 17.7198 6.4094C18.3392 6.87492 18.8621 7.45293 19.26 8.1121C19.4412 8.40027 19.5538 8.72494 19.5895 9.06189C19.6252 9.39883 19.5831 9.73935 19.4662 10.058C19.4281 10.142 19.4162 10.2351 19.432 10.3257C19.4477 10.4162 19.4905 10.5002 19.5549 10.5668C19.6545 10.7131 19.7448 10.8655 19.825 11.0229C19.8729 11.0893 19.9064 11.1647 19.9234 11.2444C19.9404 11.324 19.9405 11.4063 19.9236 11.486C19.9068 11.5657 19.8734 11.6412 19.8256 11.7076C19.7777 11.7741 19.7165 11.8301 19.6456 11.8722C19.616 11.895 19.585 11.916 19.5528 11.9351C19.2889 12.0952 19.1033 12.2898 19.192 12.6283C19.2062 12.7027 19.2062 12.779 19.192 12.8533C19.0992 13.5344 19.0311 13.6479 18.4497 13.7817C17.6435 13.9641 16.8208 14.0776 16.0023 14.1871C15.2497 14.2966 14.493 14.3756 13.7342 14.4587C13.1342 14.5256 12.5342 14.5905 11.9342 14.6371C10.9817 14.708 10.0311 14.7628 9.07857 14.8256C9.0662 14.8256 9.05383 14.852 9.04352 14.8641L8.98991 14.8682ZM9.98167 0.610072V0.583721C9.82995 0.593874 9.67771 0.593874 9.526 0.583721C9.39594 0.566986 9.26369 0.584431 9.14272 0.63428C9.02176 0.684129 8.91638 0.764602 8.83734 0.867504C7.72614 2.01073 6.74953 3.27343 5.926 4.63169C5.83086 4.81336 5.69107 4.96878 5.51931 5.08382C5.34755 5.19887 5.14927 5.26991 4.94249 5.29048C4.67033 5.32291 4.40847 5.41413 4.30744 5.69588C4.08682 6.29386 3.53218 6.45805 3.02703 6.7094C2.82285 6.79964 2.63916 6.92922 2.48682 7.09048C1.73731 7.96751 1.08227 8.91853 0.532181 9.92832C0.463493 10.0367 0.423707 10.1604 0.4165 10.288C0.409293 10.4155 0.434896 10.5428 0.490944 10.658C0.715686 11.1851 0.903315 11.7283 1.13837 12.2533C1.20247 12.4191 1.31786 12.5609 1.46826 12.6587C1.79723 12.8551 2.15355 13.0033 2.526 13.0986C3.39404 13.2689 4.27445 13.3702 5.14868 13.504C5.34249 13.5344 5.60022 13.5364 5.70744 13.656C5.99891 13.9615 6.38841 14.159 6.81053 14.2155C7.49819 14.3416 8.1956 14.4094 8.89507 14.4182C9.74455 14.4182 10.5982 14.333 11.4476 14.2702C12.0311 14.2276 12.6147 14.1648 13.1961 14.0999C14.1425 13.9966 15.093 13.8972 16.0353 13.7695C16.8147 13.6601 17.5899 13.508 18.3652 13.3641C18.4146 13.3608 18.4627 13.3474 18.5065 13.3247C18.5503 13.302 18.5888 13.2706 18.6194 13.2324C18.6501 13.1942 18.6723 13.1501 18.6847 13.103C18.697 13.0559 18.6991 13.0067 18.6909 12.9587C18.6909 12.8655 18.6909 12.7702 18.6909 12.679C18.6394 12.2533 18.6621 11.8682 19.1446 11.6655C19.1775 11.6533 19.1982 11.6107 19.2311 11.5945C19.4806 11.477 19.4373 11.331 19.3157 11.1283C19.1363 10.8466 18.8641 10.5891 18.9775 10.1999C19.0167 10.0682 19.0415 9.93034 19.0744 9.79453C19.1985 9.39261 19.1685 8.95991 18.9899 8.57832C18.7238 8.02039 18.3359 7.52694 17.8538 7.13305C17.2353 6.65467 16.7033 6.17426 16.6621 5.33507C16.6399 5.24562 16.5998 5.16139 16.5443 5.08727C16.4887 5.01315 16.4187 4.95062 16.3384 4.90332C16.0868 4.72652 15.8085 4.58972 15.5136 4.49791C15.3822 4.472 15.2596 4.41406 15.1569 4.32942C15.0542 4.24477 14.9748 4.13612 14.926 4.01345C14.5136 3.05669 14.1013 2.10399 13.6889 1.15129C13.4208 0.54318 13.0992 0.431694 12.4415 0.458045C11.6064 0.470207 10.8064 0.551288 9.98167 0.610072Z" fill="black"/>
<path d="M9.75257 2.88043C10.0556 2.88073 10.3582 2.90377 10.6577 2.94935C11.1693 3.06039 11.6722 3.2067 12.1629 3.38719C12.9629 3.6953 13.3278 4.31354 13.3237 5.14868V5.70003C14.2474 5.95543 15.134 6.23314 15.5113 7.2507C15.235 7.33584 15.0701 7.34597 14.9134 7.10476C14.5175 6.51084 13.899 6.28989 13.2268 6.20678C12.9319 6.15813 12.868 6.00408 12.868 5.77908C12.868 5.55408 12.868 5.33111 12.868 5.10814C12.9175 4.3703 12.5443 3.89192 11.868 3.66895C11.2639 3.46624 10.6309 3.33043 10.0247 3.15813C9.91891 3.12307 9.81558 3.08108 9.71545 3.03246L9.75257 2.88043Z" fill="black"/>
<path d="M7.05979 7.32367C6.90856 7.37531 6.75131 7.408 6.59175 7.42097C6.02474 7.39462 5.4701 7.39259 5.0268 7.82637C4.78969 8.05543 4.54021 8.27029 4.3134 8.50745C4.03299 8.79732 3.7732 9.11556 3.50103 9.40137C3.43742 9.45963 3.36839 9.51188 3.29485 9.55745L3.21237 9.50678C3.24708 9.366 3.299 9.22987 3.36701 9.10137C3.87413 8.38112 4.49097 7.74188 5.19588 7.2061C5.41529 7.0835 5.66125 7.01401 5.9134 7.0034C6.13608 6.96894 6.36907 7.0034 6.59588 6.98718C6.82268 6.97097 6.95464 7.01759 7.05979 7.32367Z" fill="black"/>
<path d="M12.0618 11.5216C12.0289 11.3339 11.9692 11.1517 11.8845 10.9804C11.501 10.4067 11.0062 9.99323 10.2515 9.98513C10.167 9.98513 10.0825 9.88377 9.99792 9.82904C10.066 9.76621 10.1237 9.67094 10.2041 9.64661C10.6495 9.51891 11.0433 9.69526 11.402 9.92026C11.9464 10.2608 12.3959 10.6926 12.4907 11.3655C12.5094 11.4828 12.4973 11.6028 12.4557 11.7142C12.4082 11.8216 12.266 11.9939 12.2227 11.9797C12.1842 11.9707 12.1481 11.954 12.1165 11.9305C12.0849 11.9071 12.0587 11.8775 12.0393 11.8437C12.0199 11.8098 12.0079 11.7723 12.004 11.7336C12.0001 11.695 12.0043 11.6559 12.0165 11.6189C12.0185 11.5912 12.0185 11.5635 12.0165 11.5358L12.0618 11.5216Z" fill="black"/>
</g>
<defs>
<clipPath id="clip0_1_6">
<rect width="20" height="15" fill="white"/>
</clipPath>
</defs>
</svg>
