<svg width="20" height="22" viewBox="0 0 20 22" fill="none" xmlns="http://www.w3.org/2000/svg">
<g clip-path="url(#clip0_1_18)">
<path d="M3.91401 16.9209C2.9467 16.6571 1.95252 17.211 1.71069 18.1604C1.442 19.1099 2.00626 20.0857 2.97357 20.3495C3.94088 20.5868 4.93506 20.033 5.20375 19.0835C5.44558 18.1341 4.88132 17.1582 3.91401 16.9209ZM4.02149 16.4725C5.23062 16.789 5.9561 18.0286 5.63367 19.189C5.31123 20.3758 4.07523 21.0879 2.86609 20.7714C1.65695 20.4549 0.931473 19.2418 1.25391 18.0549C1.57635 16.8681 2.83922 16.156 4.02149 16.4725Z" fill="black"/>
<path d="M14.7962 19.0835C15.0649 20.0329 16.0591 20.5868 16.9995 20.3494C18.558 19.9274 18.8536 17.8703 17.4295 17.0791C16.0591 16.3143 14.3663 17.5538 14.7962 19.0835ZM17.6713 16.6835C19.4447 17.6857 19.0416 20.2703 17.1339 20.7714C15.9248 21.0879 14.6887 20.3758 14.3663 19.189C13.8289 17.2901 15.9248 15.7077 17.6713 16.6835Z" fill="black"/>
<path d="M4.77383 15.5494L7.27271 12.9912C5.41871 11.2242 3.59157 8.87692 2.24808 6.58241C0.958338 4.36703 0.071639 2.20439 0.0447693 0.595601V0.0153809L0.447815 0.437359L9.98655 10.1956L19.5522 0.437359L19.9552 0.0153809V0.595601C19.9015 2.20439 19.0416 4.36703 17.7519 6.58241C16.3815 8.87692 14.5813 11.2242 12.7273 12.9912L15.2261 15.5494C16.086 15.1802 17.0801 15.2066 17.94 15.5758C19.794 16.3934 20.4926 18.5824 19.4984 20.2967C18.5849 21.8264 16.6234 22.4066 15.0112 21.6154C13.5871 20.9033 12.8616 19.3209 13.2378 17.8176C13.3721 17.3429 13.614 16.8945 13.9095 16.5253L13.2915 16.0769C12.1899 16.3407 10.9001 15.7604 9.98655 15.1802C9.07298 15.7604 7.81011 16.3407 6.70845 16.0769L6.06358 16.5253C6.38601 16.8945 6.62784 17.3429 6.73532 17.8176C7.08463 19.1626 6.54723 20.5868 5.39184 21.378C3.75279 22.4857 1.49573 21.9846 0.501554 20.2967C-0.492624 18.5824 0.205987 16.4198 2.03313 15.6022C2.89296 15.2066 3.88713 15.1802 4.77383 15.5494ZM7.75637 13.1494L4.98879 15.9714L4.88131 16.0769L4.72009 16.0242C3.94087 15.6549 3.0273 15.6286 2.22121 15.9978C0.635902 16.7099 0.0178996 18.5824 0.904599 20.0857C1.76443 21.5363 3.72592 21.9846 5.15001 20.9824C6.14419 20.2967 6.60097 19.0835 6.30541 17.9231C6.17106 17.4483 5.92923 17 5.57992 16.6308L5.39184 16.4462L5.60679 16.2879L6.52036 15.6549L6.62784 15.5758L6.73532 15.6022C7.75637 15.9187 9.04611 15.2593 9.87907 14.7319L9.98655 14.6527L10.1209 14.7319C10.9539 15.2593 12.2436 15.9187 13.2647 15.6022L13.3721 15.5758L13.4527 15.6549L14.3932 16.2879L14.6081 16.4462L14.42 16.6308C14.0707 17 13.8289 17.4483 13.6946 17.9231C13.3453 19.2154 13.9633 20.5868 15.1993 21.1934C16.5965 21.9055 18.3162 21.4044 19.0954 20.0857C19.9552 18.6088 19.3372 16.6835 17.7519 15.9978C16.9727 15.6286 16.0591 15.6549 15.2799 16.0242L15.1187 16.0769L15.0112 15.9714L12.2436 13.1494L12.0824 12.9912L12.2436 12.833C14.1245 11.0659 15.9785 8.6923 17.3488 6.37142C18.4505 4.47252 19.2297 2.65274 19.4447 1.20219L10.1478 10.6703L9.98655 10.8549L9.82533 10.6703L0.555293 1.20219C0.743381 2.65274 1.54947 4.47252 2.65113 6.37142C4.02148 8.6923 5.87549 11.0659 7.7295 12.833L7.89072 12.9912L7.75637 13.1494Z" fill="black"/>
<path d="M9.98654 12.2C10.4433 12.2 10.8195 12.5429 10.8195 12.9912C10.8195 13.4396 10.4433 13.8088 9.98654 13.8088C9.52976 13.8088 9.18045 13.4396 9.18045 12.9912C9.18045 12.5429 9.52976 12.2 9.98654 12.2ZM9.98654 12.6484C9.79845 12.6484 9.63724 12.8066 9.63724 12.9912C9.63724 13.2022 9.79845 13.3605 9.98654 13.3605C10.2015 13.3605 10.3627 13.2022 10.3627 12.9912C10.3627 12.8066 10.2015 12.6484 9.98654 12.6484Z" fill="black"/>
</g>
<defs>
<clipPath id="clip0_1_18">
<rect width="20" height="22" fill="white"/>
</clipPath>
</defs>
</svg>
